<svg width="462" height="400" viewBox="0 0 462 400" fill="none" xmlns="http://www.w3.org/2000/svg">
<path d="M459.085 323.748C461.517 324.906 462.457 327.28 461.793 329.984C461.13 332.688 459.085 334.068 456.431 334.343C454.552 334.509 452.506 334.564 450.682 334.178C438.853 331.529 427.299 328.052 415.912 323.913C409.002 321.375 401.927 319.608 394.464 318.229C394.353 320.933 396.122 321.982 397.504 323.14C404.469 329.046 408.56 336.385 410.218 345.436C411.711 353.659 409.776 360.226 403.474 365.69C400.71 368.118 398.112 370.767 395.68 373.526C392.529 377.003 391.866 380.866 394.409 385.116C395.293 386.606 396.012 388.261 396.675 389.862C396.952 390.524 396.841 391.297 396.233 391.793C395.625 392.235 394.906 392.125 394.353 391.628C394.077 391.407 393.801 391.186 393.58 390.91C384.846 381.418 373.292 377.5 361.242 374.685C356.267 373.526 351.236 372.919 346.151 372.864C338.577 372.754 331.225 371.098 323.873 369.111C321.496 368.504 319.119 367.842 316.687 367.401C312.431 366.628 308.672 367.29 304.858 369.994C289.656 380.59 272.851 388.096 255.438 394.222C254.278 394.608 253.061 394.939 251.956 395.436C240.292 400.679 228.131 400.679 215.804 399.023C212.321 398.581 208.783 398.692 205.301 398.581C197.285 398.361 189.712 396.595 182.526 392.897C170.033 386.385 158.756 378.052 146.927 370.491C135.926 363.482 128.408 353.549 121.664 342.787C119.011 338.538 119.066 338.648 114.368 339.697C108.287 341.076 102.151 340.138 96.0705 339.421C93.6382 339.145 91.3166 338.924 88.7738 339.2C85.0701 339.641 81.477 338.207 78.105 336.827C62.6823 330.701 50.7974 320.381 41.2342 306.75C33.7164 296.099 27.6357 284.73 21.5551 273.306C17.8514 266.298 16.1931 258.516 13.4844 251.121C9.06214 238.759 6.13238 225.901 3.53429 213.042C2.04177 205.536 1.26786 197.81 0.383406 190.194C-1.82773 171.541 5.85597 155.923 14.9216 140.857C22.6054 128.109 32.6661 117.458 45.8224 109.952C50.2446 107.413 54.1694 104.102 58.4811 101.453C64.4512 97.8109 70.9188 96.0449 77.9945 96.7623C82.0851 97.2038 86.1204 96.3208 89.9346 95.1619C99.94 92.0714 110.167 91.078 120.504 90.5814C126.142 90.3054 124.871 88.2635 122.715 85.2282C121.499 83.5726 119.84 82.1929 118.293 80.758C116.081 78.6609 114.368 76.2879 114.202 73.087C113.981 69.3343 115.75 66.9612 119.509 66.5749C124.484 66.023 129.182 66.2438 133.383 69.831C137.751 73.5837 139.022 77.3364 137.032 82.8C134.987 88.3187 135.042 88.3739 140.791 88.0979C145.324 87.8772 149.912 87.7116 154.445 87.5461C156.379 87.4909 158.259 87.3805 159.972 86.1664C163.676 83.4622 167.269 80.6477 171.415 78.6609C173.295 77.7779 173.239 76.1223 172.023 74.7426C168.817 71.1554 169.038 66.7405 168.762 62.3807C167.877 48.8598 171.47 36.3323 176.667 24.1911C180.315 15.5819 186.009 8.68345 194.522 4.26847C198.944 1.95061 203.808 1.01242 208.562 0.129426C213.15 -0.75357 218.015 2.99918 219.894 7.80047C221 10.6702 220.834 13.6503 220.945 16.6304C221.111 21.8732 220.558 27.1712 221.94 32.3036C222.879 35.7252 224.206 38.9261 227.081 41.2439C230.342 43.8377 231.613 47.9216 234.156 50.9017C241.619 59.6765 246.096 70.2725 252.509 79.6543C254.278 82.2481 255.494 82.0825 257.539 80.9236C260.248 79.3232 262.79 77.3364 265.554 75.9567C281.917 67.789 298.887 62.5462 317.572 63.374C327.688 63.8155 337.472 64.6434 346.703 69.1687C349.633 70.6036 353.005 71.3762 356.267 72.0936C367.212 74.4115 376.277 80.2614 385.067 86.8286C386.449 87.8772 387.831 88.9809 389.323 89.9191C401.816 97.7005 410.495 108.572 415.801 122.259C416.796 124.853 417.681 127.612 419.173 129.93C427.686 143.23 428.239 157.91 426.912 172.976C426.304 179.488 424.978 185.669 422.214 191.629C419.063 198.472 416.465 205.536 413.701 212.545C407.51 228.218 396.565 239.587 381.971 247.699C381.529 247.975 381.142 248.307 380.755 248.638C380.644 248.748 380.644 248.914 380.423 249.521C388.052 251.673 394.353 256.585 401.705 259.399C411.213 263.042 419.118 269.057 426.802 275.514C428.958 277.335 431.114 279.156 433.269 280.922C442.888 288.869 450.074 298.637 454.939 310.116C456.155 312.931 456.21 315.911 456.265 318.891C456.431 320.823 456.652 322.644 459.085 323.748ZM455.326 330.37C452.838 325.9 453.114 321.043 452.893 316.242C452.838 315.525 452.838 314.862 452.783 314.145C452.783 313.979 452.728 313.814 452.728 313.648C452.672 313.152 452.562 312.655 452.396 312.158C452.341 311.993 452.285 311.827 452.23 311.661C452.23 311.606 452.175 311.496 452.175 311.441C452.064 311.165 452.009 310.944 451.898 310.723C451.898 310.668 451.843 310.613 451.843 310.558C451.788 310.447 451.732 310.337 451.732 310.282C451.732 310.227 451.677 310.227 451.677 310.171C450.903 308.461 450.074 306.805 449.19 305.205C444.325 296.154 438.079 288.207 429.787 281.805C427.134 279.763 424.591 277.611 422.103 275.404C416.023 269.995 409.389 265.58 401.816 262.49C398.112 261 394.464 259.178 391.037 257.081C386.78 254.488 382.192 252.887 377.438 251.673C373.845 250.79 370.363 249.686 366.88 248.583C359.362 246.154 351.955 243.616 344.105 242.346C337.859 241.298 331.889 241.684 326.25 244.775C323.486 246.32 322.547 247.589 323.597 249.134C323.652 249.19 323.707 249.245 323.707 249.3C324.15 249.907 324.813 250.514 325.808 251.231C330.562 254.653 334.542 258.682 337.693 263.593C338.301 264.587 339.241 265.47 340.18 266.242C342.06 267.788 343.829 269.388 345.432 271.154C346.095 271.871 346.759 272.589 347.367 273.362C349.08 275.459 350.683 277.611 352.176 279.874C352.95 280.977 353.668 282.136 354.387 283.295C354.774 283.902 355.161 284.509 355.493 285.116C356.875 287.434 358.257 289.807 359.638 292.125C359.694 292.236 359.749 292.346 359.86 292.456C359.915 292.567 359.97 292.622 359.97 292.677C361.794 296.209 361.629 299.851 359.638 303.439C358.754 305.039 357.593 306.695 357.87 308.571H357.925C357.925 308.626 357.925 308.626 357.925 308.681C359.362 309.62 360.523 308.902 361.684 308.681C370.197 307.136 378.488 308.571 386.338 311.827C389.765 313.262 393.082 314.752 396.675 315.58C405.741 317.677 414.585 320.491 423.375 323.472C431.998 326.397 440.677 329.321 449.687 330.756C450.406 330.867 451.18 331.032 451.954 331.087C452.838 331.087 453.944 330.977 455.326 330.37ZM423.154 164.146C423.485 153.44 423.098 143.285 417.736 133.793C415.912 130.592 414.53 127.171 413.093 123.804C410.605 118.009 408.339 112.104 404.138 107.248C402.811 105.703 401.429 104.157 399.992 102.667C395.735 98.1972 391.203 94.0582 385.73 90.9677C383.021 89.4224 380.644 87.215 378.046 85.449C371.966 81.3099 365.664 77.6123 358.367 75.736C357.98 75.6256 357.593 75.5704 357.206 75.46C353.005 74.3563 348.859 73.1422 344.769 71.5969C343.276 71.0451 341.839 70.438 340.346 69.7758C336.145 67.8442 331.723 66.7405 327.135 66.4645C326.471 66.4093 325.863 66.4093 325.2 66.4093C324.647 66.4093 324.039 66.4093 323.486 66.4645C320.17 66.6301 316.798 66.4093 313.481 66.3541C292.862 65.7471 274.841 72.9214 257.926 83.7933C257.152 84.29 256.323 84.8419 255.549 85.3386C254.609 85.9456 254.001 86.7183 253.559 87.6564C253.448 87.9876 253.338 88.3187 253.227 88.6498C253.172 88.8706 253.117 89.0913 253.061 89.2569C252.232 91.6851 250.519 93.3959 248.363 94.2237C247.81 94.4445 247.257 94.61 246.649 94.7204C242.172 95.5482 239.629 98.4731 237.418 101.895C237.362 102.005 237.307 102.115 237.197 102.226C236.257 103.716 235.704 104.82 235.649 105.813C235.649 105.979 235.649 106.089 235.649 106.255C235.759 107.524 236.754 108.628 238.744 110.283C243.111 113.815 247.147 117.623 250.353 122.314C251.624 124.19 252.785 126.067 253.891 127.998C259.584 138.042 263.233 149.08 266.605 160.007C266.715 160.448 266.881 160.835 266.992 161.276C270.53 172.866 271.525 185.007 270.364 197.038C270.198 198.638 270.032 200.238 269.811 201.784C269.645 202.943 269.424 204.157 269.258 205.316C269.203 205.702 269.092 206.143 269.037 206.53C267.268 215.746 265.333 224.962 262.293 233.847C262.017 234.73 261.685 235.613 261.353 236.496C260.856 237.821 260.358 239.145 259.806 240.415C259.419 241.298 259.032 242.126 258.645 243.009C257.871 244.719 257.042 246.43 256.102 248.086C255.881 248.527 255.66 248.914 255.438 249.355C255.162 249.741 255.273 250.349 255.217 250.79C256.102 251.563 257.042 251.452 257.981 251.287C258.092 251.287 258.202 251.231 258.313 251.231C267.766 249.521 277.218 247.865 286.671 246.044C289.103 245.602 291.535 245.051 293.968 244.554C294.963 244.333 295.958 244.168 296.953 243.947C297.063 243.947 297.229 243.892 297.34 243.892C305.189 242.457 313.094 241.85 321.054 243.505C322.049 243.726 322.878 243.505 323.707 243.174C323.818 243.119 323.984 243.064 324.094 243.009C324.205 242.953 324.315 242.898 324.426 242.843C324.537 242.788 324.592 242.788 324.647 242.733C324.758 242.677 324.924 242.622 325.034 242.512C325.587 242.236 326.084 241.96 326.637 241.684C332.939 238.814 339.572 238.87 346.482 240.139C353.668 241.463 360.468 243.671 367.322 245.878C368.317 246.209 369.257 246.485 370.252 246.816C372.076 247.368 373.845 248.141 375.835 247.092C383.85 243.009 391.368 238.097 397.283 231.309C404.469 223.086 409.887 213.483 413.369 203.219C417.626 190.47 422.767 178.053 423.154 164.146ZM405.685 357.246C407.123 348.747 406.957 340.469 401.54 333.129C399.55 330.425 396.841 328.438 394.409 326.176C392.585 324.52 390.042 322.92 389.986 320.547C389.876 317.732 388.604 316.187 386.891 315.138C386.78 315.028 386.67 314.973 386.504 314.918C385.619 314.421 384.624 314.035 383.574 313.703C377.88 311.772 372.021 310.558 365.996 311.11C361.352 311.551 357.206 312.545 353.834 316.849C348.472 323.748 343.829 331.198 337.859 337.655C330.23 345.988 325.2 356.639 315.029 362.655C314.918 362.71 314.973 362.986 314.808 363.538C314.863 363.538 314.973 363.593 315.029 363.593V363.648C318.511 364.531 322.049 365.359 325.532 366.297C332.828 368.284 340.236 369.663 347.809 369.884C355.05 370.105 362.015 371.209 368.815 373.306C369.478 373.526 370.197 373.747 370.86 373.968C373.237 374.741 375.559 375.624 377.825 376.672C378.157 376.838 378.488 376.948 378.82 377.114C379.152 377.279 379.483 377.39 379.815 377.555C380.147 377.721 380.478 377.886 380.81 378.052C382.579 378.935 384.348 379.818 386.283 380.811C387.499 381.418 388.826 382.136 390.263 382.853C390.318 382.908 390.429 382.908 390.484 382.963C389.599 374.796 394.906 370.657 399.494 366.131C400.876 364.807 402.148 363.317 403.53 361.992C404.525 360.778 405.243 359.398 405.63 357.964C405.575 357.633 405.63 357.412 405.685 357.246ZM357.483 299.079C358.146 297.037 357.372 295.05 356.322 293.229C353.447 287.931 350.241 282.964 346.648 278.273C343.055 273.582 339.02 269.223 334.487 265.194C333.989 264.697 333.436 264.09 332.718 264.366C330.175 265.304 328.738 263.593 327.356 262.048C325.642 260.172 323.542 259.013 321.165 258.185C317.793 257.026 314.531 255.812 311.601 253.825C309.943 252.722 308.451 252.666 306.626 253.108C303.033 254.046 299.44 254.653 295.847 255.536C286.284 257.854 276.555 259.068 266.936 261C257.981 262.821 249.247 265.47 240.458 267.843C236.146 269.002 231.835 269.443 227.412 269.002C225.864 268.836 225.035 268.174 224.925 267.125C224.925 267.015 224.925 266.905 224.925 266.739C224.98 266.353 225.091 265.856 225.312 265.415C225.92 264.145 226.804 262.986 228.02 262.269C228.186 262.159 228.407 262.103 228.628 262.048C229.402 261.938 230.121 262.49 229.845 263.152C228.407 266.96 231.005 266.187 232.995 266.132C235.815 266.077 238.523 265.359 241.232 264.642C250.574 262.159 259.75 259.123 269.258 257.578C279.098 255.978 288.827 253.715 298.666 252.004C301.928 251.452 305.189 250.569 308.395 249.741C309.667 249.41 310.662 248.362 310.551 247.092C310.33 245.382 308.727 245.823 307.566 245.823C305.631 245.823 303.697 245.878 301.817 246.209C296.787 247.092 291.867 248.472 286.837 249.079C267.102 251.618 248.086 257.633 228.407 260.448V260.337C226.583 260.613 224.704 260.834 222.879 261.055C221.774 261.165 220.613 261.441 220.116 262.379C220.06 262.435 220.06 262.49 220.06 262.49C219.95 262.766 219.839 263.042 219.784 263.483C219.729 264.311 219.563 265.083 219.286 265.691C219.231 265.746 219.231 265.801 219.176 265.856C218.126 267.898 215.914 268.836 213.703 269.664C208.286 271.761 202.869 273.858 198.115 277.225C194.079 280.094 189.657 282.247 185.235 284.344C182.747 285.558 180.094 286.717 177.883 288.372C173.018 292.015 169.093 296.099 166.882 301.176C166.772 301.397 166.716 301.617 166.606 301.838C165.279 305.094 164.616 308.681 164.837 312.765C165.224 319.995 167.325 326.617 170.697 332.743C173.018 336.937 175.119 341.573 179.265 344.553C187.556 350.458 195.904 356.253 204.969 360.833C217.628 367.29 231.282 369.167 245.709 369.056C254.775 369.277 264.283 368.56 273.57 367.014C287.776 364.586 301.486 360.281 315.195 356.032C319.064 354.818 321.883 352.555 324.26 349.354C329.678 342.235 335.316 335.337 340.844 328.328C343.884 324.41 347.311 320.657 349.799 316.408C349.965 316.187 350.075 315.911 350.241 315.69C350.628 315.083 350.96 314.421 351.291 313.814C351.513 313.428 351.678 313.041 351.9 312.655C352.231 311.993 352.508 311.33 352.839 310.668C354.553 306.915 355.935 303.052 357.427 299.244C357.427 299.244 357.483 299.189 357.483 299.079ZM308.616 363.041C308.395 362.71 308.229 362.434 308.008 362.103C307.566 362.213 307.069 362.323 306.626 362.434C303.365 363.206 300.104 363.924 296.842 364.917C276.721 371.595 255.991 373.416 235.041 372.147C225.422 371.595 216.025 369.608 207.07 365.524C196.788 360.833 187.778 354.045 178.491 347.864C176.169 346.319 174.4 344.112 172.687 341.849C171.139 339.862 169.812 337.765 168.596 335.613C168.098 334.675 167.601 333.736 167.159 332.798C164.948 328.107 163.455 323.14 162.515 318.008C160.636 308.24 162.902 299.189 170.033 291.794C173.958 287.71 178.601 284.62 183.798 282.302C187.335 280.757 190.928 279.156 194.079 277.004C200.049 272.92 206.517 269.885 213.261 267.291C214.256 266.905 215.196 266.463 216.08 265.911C216.909 265.415 217.186 264.532 216.965 263.649C216.909 263.373 216.799 263.152 216.633 262.986C216.578 262.931 216.578 262.876 216.522 262.821C216.135 262.379 215.583 262.159 214.919 262.214C214.201 262.269 213.482 262.269 212.819 262.379C201.929 264.256 191.094 266.132 180.702 270.216C164.892 276.452 149.525 283.737 134.268 291.187C130.509 293.063 126.695 294.829 122.881 296.651C119.287 298.361 117.242 301.231 116.524 305.094C115.252 311.993 115.529 318.725 118.403 325.182C118.956 326.452 119.509 327.666 119.84 329.046C120.614 331.97 121.443 334.84 122.549 337.655C122.991 338.758 123.489 339.917 124.041 340.966C125.147 343.284 126.529 345.491 128.243 347.533C129.127 348.637 130.122 349.63 130.785 350.844C133.992 356.694 138.69 361.054 144.108 364.807C156.6 373.526 169.149 382.136 182.637 389.42C189.878 393.339 197.507 395.491 205.798 395.381C208.783 395.325 211.768 395.325 214.698 395.712C227.578 397.423 240.237 397.478 252.343 391.793C253.283 391.352 254.333 391.076 255.328 390.745C270.972 385.337 285.842 378.273 299.827 369.498C302.038 367.953 304.249 366.297 306.405 364.641C307.124 364.089 307.842 363.538 308.616 363.041ZM266.273 205.095C267.047 199.631 267.434 194.057 267.323 188.428C267.323 187.766 267.323 187.159 267.323 186.497C267.323 184.345 267.268 182.192 267.158 180.04C267.158 179.985 267.158 179.93 267.158 179.874C267.047 177.667 266.881 175.459 266.549 173.252C263.951 155.813 256.986 140.084 248.694 124.742C246.76 121.155 244.162 118.009 241.011 115.471C231.669 108.076 222.161 100.957 211.603 95.2723C204.416 91.4092 196.954 90.5814 189.27 91.8507C179.43 93.5063 169.646 95.493 160.083 98.3628C136.203 105.482 136.092 105.261 114.202 104.985C109.448 104.93 104.694 104.709 100.051 103.661C90.9849 101.619 81.9745 99.8528 72.5219 100.846C69.3157 101.177 66.2754 101.453 63.4562 102.998C55.6066 107.303 48.1993 112.27 40.7367 117.182C38.0834 118.892 35.8722 120.934 33.7716 123.142C33.6058 123.307 33.44 123.473 33.2741 123.639C30.3444 126.729 27.691 130.151 24.8165 133.351C12.8211 146.596 7.01681 162.435 4.86095 179.819C3.36843 192.291 5.57959 204.543 7.95657 216.795C9.9466 227.115 13.0975 237.104 15.7508 247.258C17.6856 254.653 20.0626 262.103 23.6004 268.947C27.7463 276.838 32.0027 284.73 36.6461 292.346C43.6112 303.715 50.908 314.862 62.8481 321.926C66.7729 324.244 70.4766 326.838 73.9038 329.873C77.5522 333.074 82.0298 334.619 86.839 335.171C91.3719 335.668 95.8494 336.33 100.382 336.882C105.136 337.489 109.835 337.655 114.534 336.606C116.137 336.275 117.076 335.999 117.408 335.502C118.016 334.895 117.795 333.957 117.076 331.915C116.745 330.922 116.247 329.984 115.916 328.99C113.483 322.589 111.88 316.132 112.433 309.178C112.765 305.425 113.649 302.169 115.473 299.465C115.639 299.189 115.86 298.968 116.026 298.693C117.353 296.982 119.177 295.547 121.388 294.388C125.258 292.346 129.238 290.58 133.162 288.593C148.309 280.977 163.621 273.638 179.486 267.401C191.979 262.49 205.08 260.061 218.347 258.682C228.131 257.688 237.805 256.088 247.313 253.549C248.308 253.273 249.468 253.163 250.298 252.666C250.353 252.611 250.408 252.611 250.463 252.556C250.519 252.501 250.574 252.501 250.629 252.446C250.961 252.17 251.237 251.839 251.403 251.342C253.614 244.333 258.645 238.538 259.916 231.088C260.192 229.212 260.69 227.335 261.298 225.459C261.519 224.852 261.685 224.19 261.906 223.583C262.127 222.92 262.348 222.203 262.569 221.541C264.228 216.132 265.499 210.669 266.273 205.095ZM250.629 84.6763C250.685 84.3452 250.685 83.9589 250.629 83.5726C250.519 82.2481 250.076 80.9788 249.413 79.7095C249.358 79.5991 249.303 79.4887 249.247 79.4335C248.916 78.8817 248.584 78.385 248.252 77.8883C247.921 77.3916 247.534 76.8949 247.147 76.3431C245.599 74.3563 244.272 72.3144 243.111 70.1621C243.111 70.1621 243.111 70.1069 243.056 70.1069C242.669 69.3895 242.282 68.6168 241.951 67.8994C238.192 59.7317 231.337 53.6059 227.302 45.6037C227.081 45.1622 226.638 44.7759 226.251 44.4448C220.502 39.8091 218.623 33.5729 218.347 26.6193C218.347 26.1778 218.291 25.6811 218.291 25.2396C218.236 22.3147 218.181 19.3346 218.07 16.4097C217.96 14.6437 217.849 12.8225 217.683 11.0565C217.241 6.31043 212.985 2.06099 209.06 2.83361C204.638 3.71661 200.16 4.54442 196.014 6.69672C187.999 10.8358 182.803 17.403 179.209 25.5156C173.46 38.4846 171.47 51.9503 172.3 65.9679C172.3 66.1886 172.3 66.4093 172.355 66.6301C172.465 68.3961 172.797 70.1069 173.626 71.7073C174.621 73.5837 175.672 73.9148 177.164 72.204C179.541 69.3895 181.642 66.5197 182.803 63.1533C182.803 63.1533 182.803 63.0981 182.858 63.0429C182.913 62.8773 182.968 62.767 183.024 62.6014C183.189 62.1599 183.3 61.7184 183.411 61.2769C183.521 60.9458 183.576 60.6147 183.632 60.2835C183.687 60.118 183.687 59.9524 183.742 59.7869C183.798 59.4006 183.853 59.0142 183.853 58.6279C183.853 58.5175 183.853 58.352 183.908 58.1864C184.129 54.8752 184.682 51.564 185.124 48.3079C185.622 44.5 187.612 41.4095 189.712 38.2638C189.712 38.8157 189.657 39.4228 189.657 39.9746C189.602 40.6369 189.546 41.244 189.491 41.851C189.436 42.4581 189.381 43.01 189.27 43.617C189.27 43.7826 189.215 43.9481 189.215 44.1137C189.104 45.107 188.938 46.0452 188.773 46.9834C187.999 51.5088 187.004 56.0341 186.727 60.6147C186.727 60.8354 186.672 61.1114 186.672 61.3321V61.3873C188.386 61.8288 189.104 60.5595 190.155 60.0628C193.029 58.7383 194.411 56.6964 194.577 53.8267C194.577 53.4403 194.577 53.054 194.577 52.6677C194.577 52.447 194.522 52.171 194.522 51.9503C194.522 51.7295 194.466 51.5088 194.466 51.2328C194.466 50.7362 194.466 50.2946 194.466 49.798C194.577 47.9216 194.909 46.0453 195.13 44.1689C196.014 35.3941 201.818 28.5509 204.085 20.328C204.14 20.1624 204.693 20.1072 205.522 19.8865C204.638 24.743 202.979 29.3235 201.376 34.0144C200.934 35.3389 200.492 36.7186 200.049 38.0431C198.446 43.1755 197.175 48.4735 197.396 54.2682V54.3233C201.044 50.9569 204.306 48.639 207.788 46.5971C211.271 44.5552 214.532 42.0718 219.065 40.7473C217.683 45.1623 212.929 45.2174 211.05 48.4183C211.05 48.4183 211.05 48.4183 211.105 48.4183C211.105 48.4183 211.105 48.4183 211.05 48.4735C215.03 50.6258 219.397 48.1975 224.04 51.1776C218.734 51.9503 214.588 51.7847 210.442 51.1776C205.135 50.4602 202.813 51.564 199.994 56.8067C199.994 56.8067 199.994 56.8067 200.049 56.8067C200.049 56.8067 200.049 56.862 199.994 56.862C206.075 58.0209 211.934 59.8421 218.181 59.7869C221.166 59.7869 224.151 59.842 227.136 60.0076C227.91 60.0628 229.126 59.9524 229.126 61.4425C229.126 61.4977 229.126 61.6081 229.126 61.7184C229.126 61.8288 229.126 61.9392 229.071 62.0495C219.784 61.5529 210.276 63.3189 201.1 59.9524C199.441 59.3454 197.617 58.4624 196.014 59.4006C192.145 61.6632 188.165 63.9259 185.014 67.6235H185.069L185.014 67.6786C204.582 67.8442 211.934 68.8928 217.075 72.8663C212.266 73.5837 208.562 72.7007 204.859 72.2592C199.276 71.5969 193.748 70.7139 188.109 70.7691C185.29 70.8243 182.416 70.9899 180.094 72.7559C178.933 73.5837 178.491 74.4667 178.657 75.2393C178.767 75.9567 179.431 76.619 180.536 77.1709C183.908 78.8265 187.612 79.7095 191.26 79.4887C198.115 79.1024 203.974 81.5307 209.723 84.6211C212.542 86.1664 215.472 87.3253 218.734 87.215C225.699 86.939 232.332 88.1531 238.468 91.5747C238.965 91.8507 239.629 91.961 240.403 91.961C240.569 91.961 240.734 91.961 240.9 91.961C243.056 91.9059 245.765 91.0781 247.644 89.8639C247.81 89.7536 247.976 89.6432 248.142 89.5328C248.252 89.4224 248.418 89.312 248.529 89.2569C248.916 88.9809 249.192 88.6498 249.413 88.3187C249.468 88.2083 249.524 88.1531 249.579 88.0428C250.187 86.9942 250.574 85.8353 250.629 84.6763ZM237.307 97.6453C238.689 95.9345 238.247 94.9964 236.478 94.003C232.277 91.6851 227.91 89.6984 223.045 89.9191C216.246 90.2502 210.221 88.2635 204.582 84.8419C200.989 82.6896 197.23 81.7514 193.084 81.917C189.933 82.0273 186.672 81.6962 183.798 80.5373C179.596 78.8265 175.893 78.992 171.968 81.3099C169.315 82.8552 166.606 84.1797 164.616 86.939C173.35 87.5461 181.863 87.6013 190.431 87.4909C195.24 87.4357 199.828 88.2635 204.361 89.7536C211.603 92.1266 218.181 95.769 224.427 100.018C226.86 101.674 229.126 103.661 232.056 104.82C233.825 102.391 235.483 99.908 237.307 97.6453ZM176.39 90.6917C175.948 89.6984 175.395 89.7536 174.898 89.7536C171.913 89.8087 168.928 89.8639 165.998 89.9743C157.043 90.1951 148.143 90.3606 139.243 90.6365C135.705 90.7469 135.152 91.2988 134.987 94.4445C134.987 94.61 134.987 94.8308 134.987 95.0515C134.931 95.769 134.931 96.5416 134.987 97.259C134.987 97.5901 135.042 97.9213 135.042 98.2524C135.263 100.405 135.595 101.398 136.7 101.619C137.087 101.674 137.585 101.674 138.248 101.564C138.524 101.508 138.801 101.453 139.077 101.343C139.188 101.288 139.298 101.288 139.409 101.232C151.681 97.8109 163.897 94.2789 176.39 90.6917ZM128.408 101.895C128.408 101.343 128.408 100.736 128.298 100.239C128.187 99.1906 127.966 98.1972 127.69 97.259C127.469 96.4312 127.248 95.6586 127.082 94.886C127.082 94.8308 127.026 94.7204 127.026 94.6652C126.64 93.3407 125.866 93.12 124.373 93.3407C118.679 94.3341 112.93 94.5548 107.181 94.886C102.041 95.1619 97.1761 96.7071 91.5377 98.9146C91.593 98.9146 91.593 98.9146 91.593 98.9698C91.5377 98.9698 91.5377 98.9698 91.5377 98.9698C97.95 101.122 104.196 101.84 110.388 102.06C116.358 102.226 122.328 101.95 128.408 101.895Z" fill="black"/>
<path d="M452 311C452.11 311.308 452.221 311.692 452.276 312C452.221 311.615 452.11 311.308 452 311Z" fill="black"/>
<path d="M452.166 310.387C452.111 310.276 452.055 310.11 452 310C452 310.055 452.055 310.055 452.055 310.11C452.055 310.166 452.111 310.276 452.166 310.387Z" fill="black"/>
<path d="M451.843 331.033C451.069 330.978 450.295 330.812 449.577 330.702C440.566 329.267 431.888 326.342 423.264 323.417C414.475 320.437 405.63 317.622 396.565 315.525C392.972 314.697 389.655 313.207 386.228 311.772C378.378 308.516 370.086 307.081 361.573 308.627C360.413 308.847 359.252 309.565 357.814 308.627C357.814 308.627 357.814 308.572 357.814 308.516C359.252 309.399 360.357 308.737 361.518 308.516C370.086 306.971 378.323 308.406 386.172 311.662C389.6 313.042 392.916 314.587 396.509 315.415C405.575 317.512 414.364 320.326 423.209 323.307C431.832 326.176 440.456 329.156 449.522 330.591C450.295 330.757 451.014 330.922 451.843 331.033Z" fill="black"/>
<path d="M423.154 164.146C422.767 178.053 417.626 190.47 413.314 203.163C417.57 190.47 422.711 177.998 423.154 164.146Z" fill="black"/>
<path d="M414.033 144.223C417.958 144.941 420.169 148.694 419.119 152.557C418.621 154.323 417.129 155.702 415.36 156.365C415.305 156.42 415.194 156.42 415.139 156.42C415.083 156.42 415.028 156.475 414.973 156.475C413.591 156.861 412.043 156.806 410.661 156.089C397.726 149.797 384.736 152.943 371.745 155.537C370.861 155.702 370.197 156.033 369.644 156.53C369.589 156.585 369.534 156.641 369.479 156.696C368.926 157.248 368.539 158.02 368.263 159.014C367.378 161.607 366.051 163.815 364.393 165.526C364.117 165.802 363.84 166.078 363.509 166.353C363.398 166.464 363.232 166.574 363.122 166.685C362.956 166.795 362.79 166.905 362.679 167.071C362.348 167.292 362.071 167.512 361.74 167.733C357.152 170.548 351.181 170.768 345.598 167.623C341.674 165.47 340.623 162.049 341.121 157.855C340.623 153.274 342.337 149.852 345.156 147.203C345.488 146.872 345.819 146.596 346.206 146.321C347.257 145.493 348.362 144.775 349.578 144.113C354.83 141.243 360.413 142.292 364.891 145.824C367.765 148.086 370.142 148.031 373.459 147.645C384.404 146.486 395.128 143.23 406.239 143.727C408.837 143.782 411.49 143.782 414.033 144.223ZM364.946 160.559C365.222 159.841 365.222 159.29 365.056 158.903C365.056 158.903 365.056 158.848 365.001 158.848C364.725 158.241 364.006 158.02 362.845 158.351C360.855 158.903 359.031 159.841 357.262 160.835C356.765 161.111 356.267 161.387 355.714 161.663C354.83 162.159 354.166 162.38 353.669 162.38H353.614C352.84 162.27 352.453 161.387 352.121 159.676C351.679 157.468 352.84 156.475 354.277 155.371C357.317 152.998 360.966 151.674 364.835 149.797C360.689 146.1 356.322 144.775 352.619 145.824C352.453 145.879 352.287 145.934 352.121 145.989C351.513 146.155 350.905 146.431 350.352 146.762C345.875 149.411 342.447 156.42 343.277 161.056C343.498 162.325 344.051 163.373 344.935 164.256C346.538 165.857 349.523 166.685 352.729 166.74C353.172 166.74 353.614 166.74 354.056 166.74C357.925 166.629 361.74 165.415 363.453 163.318C363.951 162.601 364.448 161.828 364.78 160.945C364.78 160.945 364.78 160.945 364.78 160.89C364.835 160.724 364.891 160.614 364.946 160.559Z" fill="black"/>
<path d="M410.661 156.144C412.043 156.861 413.535 156.916 414.972 156.53C413.59 156.971 412.043 156.916 410.661 156.199C397.725 149.852 384.735 153.053 371.745 155.647C370.86 155.813 370.197 156.144 369.699 156.585C370.197 156.088 370.86 155.757 371.8 155.592C384.735 152.998 397.725 149.852 410.661 156.144Z" fill="black"/>
<path d="M397.228 231.254C404.359 222.976 409.776 213.429 413.314 203.164C409.832 213.429 404.414 223.031 397.228 231.254Z" fill="black"/>
<path d="M390.871 163.759C392.308 168.064 392.971 172.313 390.042 176.287C390.152 172.093 388.881 167.788 390.871 163.759Z" fill="black"/>
<path d="M382.414 128.054C382.082 127.998 381.806 127.943 381.474 127.833C378.544 126.95 376.554 124.522 373.68 123.694C372.961 123.528 372.63 122.7 373.016 122.038C373.072 121.928 373.127 121.873 373.182 121.762C373.238 121.652 373.348 121.597 373.459 121.542C373.514 121.486 373.569 121.486 373.625 121.486C373.735 121.431 373.846 121.431 373.956 121.376C374.122 121.376 374.288 121.376 374.454 121.431C374.509 121.431 374.564 121.486 374.62 121.486C374.675 121.486 374.73 121.542 374.785 121.597C376.775 122.756 378.765 123.97 380.424 125.57C381.142 126.288 381.806 127.06 382.414 128.054Z" fill="black"/>
<path d="M374.785 121.597C376.831 122.756 378.765 123.915 380.424 125.57C378.765 123.915 376.775 122.756 374.785 121.597Z" fill="black"/>
<path d="M373.679 123.694C376.554 124.522 378.544 126.95 381.474 127.833C378.489 126.895 376.499 124.522 373.679 123.694C372.905 123.528 372.574 122.756 372.961 122.093C373.016 121.983 373.071 121.873 373.182 121.817C373.127 121.873 373.071 121.983 373.016 122.093C372.629 122.7 372.961 123.528 373.679 123.694Z" fill="black"/>
<path d="M374.564 121.486C374.508 121.486 374.453 121.431 374.398 121.431C374.453 121.431 374.508 121.431 374.564 121.486Z" fill="black"/>
<path d="M362.9 158.296C364.061 158.02 364.779 158.186 365.056 158.793C364.724 158.241 364.006 158.02 362.9 158.296C360.91 158.848 359.086 159.842 357.317 160.78C359.031 159.786 360.855 158.793 362.9 158.296Z" fill="black"/>
<path d="M364.78 160.89C364.448 161.718 363.951 162.546 363.453 163.263C361.739 165.415 357.925 166.574 354.056 166.685C357.87 166.574 361.684 165.36 363.342 163.263C363.95 162.491 364.393 161.718 364.78 160.89Z" fill="black"/>
<path d="M362.624 167.017C362.79 166.906 362.955 166.796 363.066 166.63C362.955 166.796 362.79 166.906 362.624 167.017Z" fill="black"/>
<path d="M361.685 167.678C362.016 167.458 362.347 167.237 362.624 167.016C362.292 167.292 361.961 167.513 361.685 167.678Z" fill="black"/>
<path d="M364.891 149.742C361.021 151.618 357.373 152.943 354.332 155.316C352.895 156.42 351.734 157.413 352.177 159.62C352.508 161.331 352.84 162.214 353.669 162.325C352.729 162.269 352.398 161.386 352.066 159.62C351.624 157.413 352.785 156.42 354.222 155.316C357.317 152.943 360.911 151.618 364.78 149.742C360.745 146.099 356.378 144.775 352.674 145.768C356.323 144.665 360.745 145.989 364.891 149.742Z" fill="black"/>
<path d="M359.694 292.346C359.638 292.236 359.583 292.125 359.473 292.015C358.091 289.697 356.709 287.324 355.327 285.006C356.709 287.269 358.035 289.587 359.417 291.905C359.528 292.015 359.638 292.181 359.694 292.346Z" fill="black"/>
<path d="M356.377 293.284C357.372 295.105 358.202 297.092 357.538 299.134C358.091 297.147 357.317 295.105 356.377 293.284Z" fill="black"/>
<path d="M354.443 193.119C352.287 194.388 349.633 194.83 347.035 194.499C344.769 194.168 342.447 193.285 340.402 191.739C340.236 191.629 340.07 191.463 339.904 191.353C344.769 191.795 349.578 192.622 354.443 193.119Z" fill="black"/>
<path d="M352.84 310.724C352.563 311.386 352.232 312.048 351.9 312.71C352.232 312.048 352.508 311.386 352.84 310.724Z" fill="black"/>
<path d="M344.16 113.539C345.763 113.263 347.311 113.208 348.804 113.484C344.492 115.581 340.788 117.292 337.195 119.168C333.326 121.21 329.788 123.804 326.858 127.115C324.039 130.261 323.376 134.51 321.109 137.932C321.109 137.435 321.164 136.939 321.22 136.387C321.275 136.056 321.33 135.669 321.386 135.338C321.441 135.173 321.441 135.007 321.496 134.786C321.607 134.455 321.662 134.069 321.773 133.738C321.883 133.407 321.994 133.02 322.104 132.689C322.215 132.358 322.381 131.972 322.546 131.641C326.14 123.307 335.813 115.029 344.16 113.539Z" fill="black"/>
<path d="M345.266 271.044C343.663 269.333 341.95 267.677 340.015 266.132C339.075 265.359 338.136 264.476 337.527 263.483C334.377 258.571 330.397 254.543 325.643 251.121C324.648 250.404 323.984 249.797 323.542 249.189C323.984 249.741 324.648 250.348 325.587 251.011C330.341 254.432 334.321 258.461 337.472 263.373C338.136 264.366 339.02 265.249 339.96 266.022C341.894 267.622 343.663 269.278 345.266 271.044Z" fill="black"/>
<path d="M346.427 240.084C339.517 238.815 332.884 238.76 326.582 241.629C332.939 238.704 339.462 238.76 346.427 240.084Z" fill="black"/>
<path d="M334.542 265.249C339.075 269.278 343.055 273.637 346.703 278.328C343.055 273.637 339.02 269.278 334.542 265.249C333.989 264.807 333.492 264.256 332.773 264.476C330.23 265.414 328.793 263.649 327.411 262.158C325.697 260.282 323.597 259.123 321.22 258.295C317.903 257.192 314.586 255.922 311.657 253.936C310.054 252.832 308.506 252.777 306.682 253.218C303.088 254.156 299.495 254.763 295.902 255.646C286.339 257.964 276.61 259.178 266.992 261.11C258.092 262.931 249.358 265.58 240.513 267.953C236.202 269.112 231.89 269.554 227.468 269.112C225.92 268.946 225.091 268.229 224.98 267.18C225.091 268.229 225.92 268.891 227.468 269.057C231.89 269.498 236.202 269.057 240.513 267.898C249.303 265.525 258.037 262.876 266.992 261.055C276.61 259.123 286.339 257.909 295.902 255.591C299.495 254.708 303.088 254.101 306.682 253.163C308.506 252.721 309.998 252.777 311.657 253.88C314.586 255.867 317.848 257.081 321.22 258.24C323.597 259.068 325.697 260.227 327.411 262.103C328.793 263.649 330.23 265.359 332.773 264.421C333.492 264.145 334.044 264.752 334.542 265.249Z" fill="black"/>
<path d="M340.402 69.7761C336.145 67.8997 331.778 66.7408 327.19 66.4648C331.723 66.6856 336.145 67.8445 340.402 69.7761Z" fill="black"/>
<path d="M325.2 66.4092C325.863 66.4092 326.471 66.4092 327.135 66.4644C326.527 66.4092 325.863 66.4092 325.2 66.4092Z" fill="black"/>
<path d="M324.592 242.622C324.703 242.567 324.868 242.512 324.979 242.401C324.813 242.512 324.703 242.567 324.592 242.622Z" fill="black"/>
<path d="M344.161 113.539C335.814 115.029 326.14 123.307 322.547 131.641C326.085 123.307 335.759 115.029 344.161 113.539Z" fill="black"/>
<path d="M322.104 132.689C321.994 133.021 321.883 133.408 321.773 133.739C321.828 133.408 321.938 133.021 322.104 132.689Z" fill="black"/>
<path d="M321.773 152.501C321.773 156.805 321.773 161.165 321.773 165.47C321.331 165.47 320.888 165.525 320.446 165.525C319.783 161.662 319.783 157.799 320.336 153.384C320.446 152.666 320.557 151.949 320.667 151.176C321.22 152.777 320.888 151.673 321.496 152.059C321.607 152.114 321.773 152.335 321.773 152.501Z" fill="black"/>
<path d="M321.718 133.738C321.607 134.069 321.497 134.456 321.441 134.787C321.552 134.456 321.607 134.124 321.718 133.738Z" fill="black"/>
<path d="M321.331 135.338C321.276 135.67 321.221 136.056 321.165 136.388C321.221 136.001 321.276 135.67 321.331 135.338Z" fill="black"/>
<path d="M320.336 153.329C319.783 157.799 319.783 161.607 320.446 165.47C319.728 161.662 319.728 157.799 320.336 153.329Z" fill="black"/>
<path d="M312.928 144.279C313.592 148.031 312.873 152.501 311.712 156.916C311.602 157.192 311.546 157.523 311.436 157.799C311.381 157.965 311.325 158.131 311.325 158.296C311.27 158.517 311.215 158.738 311.215 159.014C311.104 159.952 311.381 160.89 312.486 161.663C313.481 162.38 313.039 163.594 312.652 164.587C311.104 168.506 309.169 172.259 306.129 175.239C304.913 176.398 303.697 177.06 302.536 177.115C302.37 177.115 302.204 177.115 302.038 177.115C300.435 176.949 299.164 175.68 298.832 173.307C297.34 164.201 295.903 154.93 296.842 145.713C297.395 140.471 300.656 135.89 304.968 132.689C306.129 131.861 307.235 131.42 308.285 131.365C308.395 131.365 308.561 131.365 308.672 131.365C310.938 131.475 312.652 133.462 312.873 136.663C312.984 137.932 312.984 139.257 312.984 140.691C312.984 140.857 312.984 141.078 312.984 141.243C312.984 141.519 312.984 141.795 312.984 142.071C312.928 142.733 312.928 143.506 312.928 144.279ZM309.446 152.722C310.386 149.301 310.772 145.879 310.496 141.63C310.496 140.471 310.662 138.539 310.441 136.608C310.386 136.111 310.275 135.669 310.109 135.283C309.446 133.903 308.064 133.627 306.405 134.786C306.295 134.897 306.129 135.007 306.019 135.117C305.079 135.835 304.25 136.773 303.476 137.766C303.31 137.987 303.144 138.208 302.978 138.429C299.772 142.789 298.943 147.811 299.717 153.109C300.435 158.296 300.767 163.484 300.933 168.726C300.933 169.665 300.988 170.548 301.154 171.486C301.154 171.596 301.209 171.762 301.209 171.872C301.651 174.08 302.868 174.466 304.415 172.866C304.471 172.81 304.581 172.7 304.637 172.645C306.461 170.768 307.898 168.671 308.451 166.243C308.506 166.022 308.561 165.857 308.561 165.636C308.617 165.415 308.617 165.25 308.617 165.029C308.617 164.919 308.617 164.753 308.672 164.643C308.672 164.477 308.672 164.256 308.672 164.091C308.672 163.594 308.617 163.097 308.561 162.601C308.119 159.179 308.617 155.923 309.446 152.722Z" fill="black"/>
<path d="M311.325 158.297C311.381 158.131 311.436 157.966 311.436 157.8C311.381 157.966 311.325 158.131 311.325 158.297Z" fill="black"/>
<path d="M309.446 152.722C310.33 149.3 310.717 145.879 310.496 141.629C310.772 145.879 310.385 149.3 309.446 152.722Z" fill="black"/>
<path d="M306.405 134.786C308.064 133.627 309.446 133.903 310.109 135.283C309.446 133.903 308.064 133.682 306.405 134.786Z" fill="black"/>
<path d="M308.285 131.365C307.234 131.42 306.129 131.861 304.968 132.689C300.656 135.89 297.395 140.471 296.842 145.713C295.902 154.93 297.339 164.201 298.832 173.307C299.219 175.68 300.49 176.949 302.038 177.115C300.435 177.005 299.164 175.68 298.777 173.307C297.284 164.201 295.847 154.93 296.787 145.713C297.339 140.471 300.546 135.945 304.913 132.689C306.073 131.806 307.234 131.365 308.285 131.365Z" fill="black"/>
<path d="M303.475 137.712C304.194 136.718 305.023 135.835 306.018 135.062C305.023 135.835 304.194 136.773 303.475 137.712Z" fill="black"/>
<path d="M302.923 138.373C299.772 142.733 298.942 147.755 299.661 153.053C298.887 147.755 299.772 142.733 302.923 138.373Z" fill="black"/>
<path d="M306.571 362.434C303.31 363.207 300.048 363.98 296.842 365.028C276.721 371.706 256.047 373.472 235.041 372.258C225.422 371.706 215.97 369.719 207.07 365.635C196.788 360.944 187.833 354.211 178.491 347.975C176.169 346.43 174.4 344.167 172.687 341.96C171.139 339.918 169.757 337.821 168.541 335.613C169.702 337.766 171.084 339.863 172.631 341.849C174.345 344.112 176.114 346.32 178.436 347.865C187.722 354.046 196.733 360.834 207.015 365.525C215.97 369.609 225.367 371.595 234.986 372.147C255.936 373.417 276.666 371.595 296.787 364.918C300.048 363.924 303.365 363.207 306.571 362.434Z" fill="black"/>
<path d="M258.258 251.176C267.71 249.41 277.163 247.81 286.616 245.989C277.163 247.81 267.655 249.466 258.258 251.176Z" fill="black"/>
<path d="M269.259 205.26C269.48 204.046 269.646 202.887 269.812 201.729C269.646 202.887 269.425 204.046 269.259 205.26Z" fill="black"/>
<path d="M267.102 180.095C267.213 182.248 267.268 184.4 267.268 186.552C267.268 184.4 267.213 182.248 267.102 180.095Z" fill="black"/>
<path d="M269.037 206.475C267.323 215.746 265.333 224.907 262.293 233.792C265.278 224.907 267.268 215.691 269.037 206.475Z" fill="black"/>
<path d="M262.514 221.541C264.228 216.133 265.444 210.669 266.273 205.095C265.499 210.669 264.228 216.133 262.514 221.541Z" fill="black"/>
<path d="M262.238 233.792C261.961 234.675 261.63 235.558 261.298 236.441C261.63 235.558 261.961 234.675 262.238 233.792Z" fill="black"/>
<path d="M253.946 127.943C259.695 137.987 263.288 149.025 266.66 159.952C263.233 148.97 259.64 137.987 253.946 127.943Z" fill="black"/>
<path d="M255.162 250.734C256.047 251.452 256.987 251.397 257.926 251.231C256.987 251.341 255.992 251.507 255.162 250.734Z" fill="black"/>
<path d="M255.383 249.3C255.162 249.686 255.218 250.293 255.162 250.735C255.218 250.293 255.107 249.686 255.383 249.3Z" fill="black"/>
<path d="M253.614 87.6563C254.001 86.7181 254.609 85.9454 255.604 85.3384C254.609 86.0006 254.001 86.7181 253.614 87.6563Z" fill="black"/>
<path d="M248.362 94.2232C250.518 93.3954 252.232 91.6294 253.061 89.2563C252.232 91.6846 250.518 93.3954 248.362 94.2232Z" fill="black"/>
<path d="M250.298 252.721C250.353 252.666 250.408 252.666 250.464 252.611C250.408 252.611 250.353 252.666 250.298 252.721Z" fill="black"/>
<path d="M249.414 79.7095C250.132 80.9788 250.574 82.3033 250.63 83.5726C250.519 82.3033 250.077 80.9788 249.414 79.7095Z" fill="black"/>
<path d="M248.474 89.2563C248.363 89.3668 248.197 89.4773 248.087 89.5325C248.197 89.4773 248.363 89.3668 248.474 89.2563Z" fill="black"/>
<path d="M247.147 76.3436C247.534 76.8954 247.921 77.3921 248.253 77.8888C247.866 77.3369 247.534 76.8954 247.147 76.3436C245.599 74.412 244.273 72.3149 243.112 70.1626C244.217 72.3149 245.599 74.3568 247.147 76.3436Z" fill="black"/>
<path d="M243.056 70.0515C242.669 69.3341 242.282 68.6167 241.951 67.8992C238.192 59.7315 231.337 53.5505 227.302 45.6036C227.081 45.1621 226.639 44.7758 226.252 44.4446C220.503 39.7537 218.623 33.5176 218.347 26.564C218.679 33.5176 220.503 39.6985 226.252 44.3894C226.639 44.7206 227.081 45.1069 227.302 45.5484C231.337 53.5505 238.192 59.6763 241.951 67.844C242.282 68.5615 242.614 69.3341 243.056 70.0515Z" fill="black"/>
<path d="M240.845 92.0165C243.001 91.9614 245.709 91.0784 247.589 89.9194C245.709 91.1336 243.001 91.9614 240.845 92.0165Z" fill="black"/>
<path d="M235.649 106.199C235.759 107.469 236.754 108.572 238.745 110.228C236.754 108.572 235.759 107.469 235.649 106.199Z" fill="black"/>
<path d="M229.015 62.1049C229.015 61.9946 229.015 61.8842 229.071 61.7738C229.015 61.8842 229.015 61.9946 229.015 62.1049C219.673 61.7186 210.221 63.4294 201.045 60.063C199.386 59.4559 197.562 58.5729 195.959 59.5111C192.089 61.7738 188.165 63.9813 185.014 67.6788H184.958C188.109 63.9813 192.089 61.7186 195.959 59.4559C197.562 58.5177 199.386 59.4007 201.045 60.0078C210.221 63.3742 219.729 61.6082 229.015 62.1049Z" fill="black"/>
<path d="M228.463 260.393V260.503H228.408C226.583 260.779 224.704 261 222.88 261.22C221.83 261.331 220.669 261.552 220.171 262.435C220.669 261.441 221.829 261.22 222.935 261.11C224.759 260.889 226.639 260.669 228.463 260.393Z" fill="black"/>
<path d="M223.93 51.2887C223.93 51.2887 223.985 51.2888 223.985 51.3439C218.623 52.1166 214.477 51.951 210.331 51.3439C205.025 50.5713 202.703 51.7302 199.939 56.9178C199.939 56.9178 199.939 56.9178 199.884 56.9178C202.703 51.6751 205.025 50.5713 210.331 51.2887C214.477 51.8958 218.623 52.0614 223.93 51.2887Z" fill="black"/>
<path d="M218.955 40.8579C217.573 45.2729 212.874 45.3832 210.995 48.5289C210.995 48.5289 210.995 48.5289 210.939 48.5289C212.819 45.3281 217.573 45.2729 218.955 40.8579Z" fill="black"/>
<path d="M213.759 269.774C215.97 268.891 218.181 268.008 219.231 265.966C218.181 268.063 215.97 269.057 213.704 269.94C208.286 272.037 202.869 274.079 198.115 277.5C194.08 280.37 189.713 282.467 185.235 284.62C182.692 285.778 180.094 286.993 177.883 288.648C173.074 292.235 169.204 296.319 166.938 301.341C169.149 296.264 173.074 292.125 177.938 288.538C180.149 286.882 182.803 285.723 185.29 284.509C189.713 282.412 194.135 280.26 198.17 277.39C202.924 273.968 208.342 271.871 213.759 269.774Z" fill="black"/>
<path d="M217.684 11.0017C217.849 12.7677 217.96 14.5889 218.071 16.3549C217.96 14.5889 217.849 12.8229 217.684 11.0569C217.241 6.31081 212.985 2.06138 209.06 2.834C204.638 3.71699 200.16 4.5448 196.014 6.69711C187.999 10.8913 182.803 17.4586 179.21 25.5159C173.516 38.485 171.526 51.9507 172.3 65.913C171.471 51.8955 173.461 38.3746 179.21 25.4608C182.803 17.3482 187.999 10.781 196.014 6.64193C200.16 4.48963 204.638 3.66182 209.06 2.77882C212.985 2.0062 217.241 6.2556 217.684 11.0017Z" fill="black"/>
<path d="M216.965 72.9218L217.02 72.977C212.211 73.6944 208.507 72.8115 204.748 72.37C199.165 71.7077 193.637 70.8247 187.999 70.8799C185.18 70.9351 182.305 71.1007 179.983 72.8667C178.878 73.6945 178.436 74.5223 178.546 75.2949C178.38 74.4671 178.822 73.6393 179.983 72.8115C182.305 71.0455 185.18 70.8799 187.999 70.8247C193.637 70.7695 199.165 71.6525 204.748 72.3148C208.452 72.7563 212.211 73.5841 216.965 72.9218Z" fill="black"/>
<path d="M214.919 262.213C215.583 262.158 216.191 262.379 216.522 262.82C216.191 262.434 215.638 262.324 214.975 262.324C214.256 262.379 213.593 262.324 212.874 262.489C201.984 264.366 191.15 266.242 180.757 270.326C164.948 276.562 149.58 283.792 134.323 291.297C130.564 293.118 126.75 294.939 122.936 296.761C119.343 298.471 117.297 301.341 116.579 305.204C115.307 312.048 115.639 318.78 118.458 325.292C119.011 326.562 119.564 327.776 119.895 329.156C120.669 332.025 121.499 334.895 122.549 337.654C121.443 334.84 120.614 331.97 119.84 329.045C119.509 327.665 118.956 326.451 118.403 325.182C115.529 318.725 115.252 311.992 116.524 305.094C117.242 301.231 119.287 298.361 122.881 296.65C126.695 294.829 130.509 293.063 134.268 291.187C149.525 283.736 164.892 276.452 180.702 270.216C191.094 266.132 201.929 264.255 212.819 262.379C213.482 262.269 214.201 262.269 214.919 262.213Z" fill="black"/>
<path d="M205.412 19.9424C204.528 24.7989 202.869 29.3794 201.266 34.0703C202.869 29.3794 204.528 24.7437 205.412 19.9424Z" fill="black"/>
<path d="M194.466 52.005C194.466 52.281 194.521 52.5017 194.521 52.7225C194.521 52.5017 194.466 52.281 194.466 52.0602C194.411 51.7843 194.411 51.5635 194.411 51.2876C194.411 51.5083 194.411 51.7291 194.466 52.005Z" fill="black"/>
<path d="M189.381 41.851C189.437 41.2439 189.492 40.5817 189.547 39.9746C189.547 40.5817 189.492 41.1887 189.381 41.851Z" fill="black"/>
<path d="M183.577 60.2286C183.577 60.0629 183.632 59.8972 183.687 59.7314C183.632 59.8972 183.632 60.0629 183.577 60.2286Z" fill="black"/>
<path d="M183.355 61.1676C183.41 60.8362 183.521 60.5048 183.576 60.1733C183.521 60.56 183.466 60.8914 183.355 61.1676Z" fill="black"/>
<path d="M139.409 101.233C151.681 97.7559 163.897 94.2239 176.39 90.6919C163.897 94.2791 151.681 97.811 139.409 101.233Z" fill="black"/>
<path d="M165.943 89.9194C157.043 90.1402 148.143 90.3057 139.188 90.6369C135.65 90.7472 135.097 91.2991 134.931 94.3896C135.097 91.2439 135.595 90.6921 139.188 90.5817C148.088 90.3058 157.043 90.1402 165.943 89.9194Z" fill="black"/>
<path d="M64.8383 132.248C65.3911 133.738 65.2252 135.56 64.2302 137.657C63.6774 138.926 63.0694 140.14 62.4613 141.354C62.1297 142.016 61.798 142.624 61.4663 143.286C59.8632 146.376 58.1496 149.467 56.3807 152.502C52.5112 159.014 50.3001 165.857 50.3553 173.473C50.3553 173.639 50.3553 173.749 50.3553 173.915C50.4659 178.716 50.3553 183.517 50.1895 188.263C50.1342 189.422 50.1342 190.581 50.0789 191.74C49.8025 199.798 45.6014 202.171 38.8021 197.59C32.5004 193.285 29.6812 186.939 29.6812 179.544C29.6812 179.268 29.6812 179.047 29.6812 178.826C29.6812 178.606 29.6812 178.385 29.6812 178.219C30.3998 163.981 35.4301 151.288 43.6113 139.754C44.8275 138.043 45.933 136.222 47.2597 134.621C50.0236 131.31 53.2851 128.772 56.7676 128.496C59.1446 128.496 61.0794 128.882 62.4613 129.655C62.5719 129.71 62.6272 129.765 62.7377 129.82C62.8483 129.875 62.9588 129.93 63.0141 130.041C63.0694 130.096 63.1799 130.151 63.2352 130.206C63.401 130.317 63.5116 130.427 63.6774 130.593C63.8986 130.813 64.0644 131.034 64.2302 131.255C64.5619 131.531 64.7277 131.862 64.8383 132.248ZM61.8532 135.56C62.406 133.131 61.4663 131.972 58.9788 131.641C58.8129 131.641 58.5918 131.586 58.426 131.586C58.0943 131.586 57.7626 131.586 57.431 131.586C56.1596 131.696 54.9987 132.083 53.8379 132.8C50.9634 134.621 48.5864 136.939 47.4808 140.25C46.6517 142.679 45.4355 144.665 43.2244 145.99C42.1188 146.652 41.4555 147.701 40.9027 148.749C35.8723 157.91 32.7768 167.679 32.3898 178.164C32.3898 179.544 32.1687 180.979 32.4451 182.358C33.4401 187.877 35.5407 192.844 40.6816 195.714C42.4505 196.707 43.8877 197.093 44.8827 196.817C44.9933 196.817 45.0486 196.762 45.1039 196.762C46.3753 196.321 47.0386 194.775 47.0939 192.182C47.2044 185.89 47.1492 179.599 47.2597 173.308C47.3703 165.637 49.4156 158.517 53.3404 151.895C55.8279 147.646 58.039 143.286 60.3607 138.981C61.0241 137.822 61.5768 136.719 61.8532 135.56Z" fill="black"/>
<path d="M63.3457 130.151C63.2905 130.096 63.2352 130.041 63.1248 129.985C63.18 130.041 63.2352 130.096 63.3457 130.151Z" fill="black"/>
<path d="M62.793 129.764C62.6826 129.709 62.6273 129.654 62.5168 129.599C62.6273 129.654 62.7378 129.709 62.793 129.764Z" fill="black"/>
<path d="M58.9786 131.641C61.4661 131.972 62.4058 133.131 61.853 135.559C61.5766 136.718 61.0239 137.822 60.4158 138.925C58.0941 143.23 55.883 147.59 53.3954 151.839C49.4707 158.462 47.4254 165.581 47.3148 173.252C47.2043 179.543 47.2595 185.835 47.1489 192.126C47.0937 194.775 46.4303 196.265 45.1589 196.706C46.3751 196.21 46.9831 194.665 47.0937 192.126C47.2042 185.835 47.2042 179.543 47.2595 173.252C47.3701 165.581 49.4154 158.462 53.3401 151.839C55.8277 147.645 58.0388 143.285 60.3605 138.925C60.9686 137.822 61.5214 136.718 61.7978 135.559C62.3505 133.131 61.4661 131.972 58.9233 131.641C58.7575 131.641 58.5916 131.585 58.4258 131.585C58.5916 131.585 58.7574 131.585 58.9786 131.641Z" fill="black"/>
<path d="M62.5165 129.599C61.1346 128.826 59.2551 128.385 56.8228 128.44C53.3403 128.716 50.0788 131.255 47.3149 134.566C45.9882 136.166 44.8826 137.987 43.6665 139.698C35.4853 151.232 30.4549 163.925 29.7363 178.164C29.7363 178.384 29.7363 178.605 29.7363 178.771C29.7363 178.55 29.7363 178.274 29.7363 178.053C30.4549 163.815 35.4853 151.122 43.6665 139.588C44.8826 137.877 45.9882 136.111 47.3149 134.455C50.0788 131.199 53.3403 128.716 56.8228 128.385C59.2551 128.385 61.1346 128.826 62.5165 129.599Z" fill="black"/>
<path d="M54.3353 228.715C54.667 230.702 54.8881 232.633 53.1192 233.958C52.677 234.289 52.1795 234.565 51.7373 234.73C52.1795 234.565 52.677 234.344 53.1192 233.958C54.8329 232.633 54.6117 230.647 54.3353 228.715C53.1745 222.093 50.3553 216.077 47.8125 209.951C46.8727 207.744 45.1591 206.916 42.8374 206.861C42.8927 206.861 42.8927 206.861 42.948 206.861C45.2697 206.916 46.9833 207.744 47.923 209.951C50.4106 216.077 53.2298 222.093 54.3353 228.715Z" fill="black"/>
<path d="M54.2797 228.715C54.6114 230.647 54.8325 232.633 53.0636 233.958C52.6213 234.289 52.1791 234.565 51.6816 234.73C50.1891 235.227 48.6413 234.841 47.1488 234.234C46.5407 233.958 45.9327 233.516 45.3799 233.13C41.6762 230.315 36.5906 219.94 36.5906 215.249C36.5906 213.318 36.6459 211.441 37.6961 209.675C38.857 207.744 40.5153 206.861 42.7265 206.861C42.7818 206.861 42.7818 206.861 42.837 206.861C45.1587 206.916 46.8724 207.744 47.8121 209.951C50.3549 216.077 53.1741 222.093 54.2797 228.715ZM50.576 232.247C51.2947 231.971 51.6816 231.309 51.6816 230.15C51.6816 230.039 51.6816 229.929 51.6816 229.819C51.5158 228.936 51.2947 227.942 51.1288 226.894C50.2996 221.872 47.9227 217.346 45.9879 212.656C45.6563 211.883 45.3246 211.165 44.8271 210.558C44.7718 210.503 44.7165 210.393 44.606 210.338C44.0532 209.786 43.3345 209.455 42.1737 209.675C40.0178 210.007 39.5756 211.773 39.3545 213.594C38.2489 221.154 42.6159 226.397 47.1488 231.53C47.3699 231.75 47.7016 231.916 48.0332 232.026C48.3649 232.137 48.7518 232.247 49.0835 232.302C49.581 232.357 50.0233 232.357 50.3549 232.302C50.4655 232.302 50.5208 232.302 50.576 232.247Z" fill="black"/>
<path d="M51.1294 226.949C51.2952 227.997 51.5163 228.991 51.6822 229.874C51.5163 229.046 51.2399 227.997 51.0741 226.949C50.2449 221.871 47.868 217.346 45.9332 212.71C45.6015 211.938 45.2699 211.22 44.8276 210.613C45.3251 211.165 45.6568 211.938 45.9885 212.71C47.9232 217.401 50.3002 221.927 51.1294 226.949Z" fill="black"/>
</svg>
