<svg width="517" height="447" viewBox="0 0 517 447" fill="none" xmlns="http://www.w3.org/2000/svg">
<path d="M434.214 88.8885C441.691 84.6075 447.3 77.7338 455.139 73.5734C454.054 72.2468 453.27 71.2218 452.425 70.1968C450.013 71.5233 449.109 74.4175 446.697 75.0205C443.621 75.744 442.536 77.9749 441.269 80.2662C439.34 83.4618 437.53 86.7781 434.214 88.8885ZM434.153 88.8885C433.792 89.0694 433.43 89.3105 433.068 89.4914C433.43 89.3105 433.792 89.1297 434.153 88.8885ZM516.95 73.1512C517.312 79.7838 515.684 86.1148 513.091 92.0841C511.523 95.6416 508.085 96.4254 504.347 94.3151C500.789 92.3253 497.834 89.5517 495.12 86.5972C486.557 77.2514 478.356 74.5984 462.737 76.8293C467.562 80.1456 471.059 83.8839 474.918 87.0796C480.346 91.5415 483.783 97.0887 484.808 104.023C485.23 107.098 486.798 109.208 489.029 111.198C492.829 114.695 496.507 118.313 500.065 122.051C507.06 129.287 510.015 138.21 510.558 148.099C511.221 160.279 508.206 172.036 506.638 183.975C504.166 202.727 497.773 220.333 491.14 237.879C489.271 242.884 486.979 247.768 484.266 252.35C478.597 261.877 472.446 271.162 467.501 281.111C465.632 284.91 462.798 288.105 459.662 290.939C455.863 294.437 452.184 298.115 449.109 302.275C448.566 303.059 448.023 304.084 447.239 304.385C440.908 307.099 441.51 312.405 442.174 317.65C442.415 319.519 441.571 320.967 441.209 322.595C438.495 336.161 432.586 347.979 424.203 359.134C415.399 370.952 405.57 381.202 392.966 388.98C386.815 392.779 381.328 397.663 375.84 402.486C360.403 415.932 342.734 425.881 324.582 434.986C312.642 440.955 299.496 442.824 286.23 443.97C279.536 444.512 272.902 445.236 266.209 445.839C253.183 447.045 240.037 448.01 227.313 444.995C217.001 442.583 206.931 438.724 199.936 429.74C194.026 422.143 185.161 419.49 176.357 417.802C167.251 416.113 158.688 412.978 149.884 410.385C146.326 409.3 143.371 407.31 140.718 404.717C132.878 396.879 127.27 388.076 127.692 376.439C127.752 375.112 127.572 373.725 127.692 372.399C128.838 357.144 120.215 347.014 109.662 337.849C107.672 336.101 105.862 335.618 103.872 338.03C101.762 340.563 98.8069 341.045 95.5505 340.804C79.3289 339.658 65.8813 332.965 56.6549 319.64C43.2072 300.345 30.1215 280.749 19.4478 259.706C16.6135 254.038 13.9602 248.31 12.332 242.22C9.79923 232.814 7.32688 223.348 5.03536 213.881C3.88959 209.058 3.5278 204.114 3.4072 199.109C3.16598 187.231 2.92471 175.413 0.633187 163.655C-0.934699 155.455 0.814097 147.255 1.53774 139.054C2.20107 131.276 3.58811 123.498 4.61326 115.72C6.72388 100.103 15.3472 89.4914 29.3978 82.9795C30.6039 82.4368 31.8703 81.9545 33.0764 81.3515C46.1019 74.1763 60.2128 73.9351 74.4443 75.5028C77.8213 75.8646 80.2939 75.3822 82.8266 73.2719C91.2087 66.2776 100.797 61.6348 111.591 59.7656C112.134 59.645 112.677 59.4642 113.28 59.3436C115.029 59.1024 119.189 58.3185 119.973 60.1877C119.913 60.7303 119.913 61.273 119.853 61.876C118.828 63.2025 115.39 62.4789 114.124 62.7201C105.199 64.4084 96.6963 67.0011 89.2187 72.4277C86.9874 73.9954 84.9975 75.6234 84.5151 78.8793C87.0479 79.7838 89.7011 79.3014 92.2942 79.4823C97.239 79.8441 102.244 80.0853 107.008 81.653C107.913 81.9545 108.938 82.4971 108.576 83.6427C108.275 84.8486 107.069 84.728 106.224 84.5471C100.013 83.4015 93.6811 82.9192 87.4096 82.3765C78.8465 81.5927 70.6453 83.1001 62.625 85.9943C58.1022 87.6222 53.8207 89.7929 49.4788 91.7223C43.3279 94.4357 38.1418 98.0534 36.3327 105.108C34.2824 104.505 34.9458 103.179 35.187 102.274C36.8755 97.0284 40.6745 93.6518 45.3782 91.1797C55.087 86.1751 64.9768 81.7133 75.7108 79.0602C64.3135 78.6985 52.8559 76.1058 41.8204 81.3515C34.2221 84.9693 26.1414 87.381 19.7493 93.29C13.5984 99.0181 9.73892 105.832 8.41225 114.032C6.42224 126.694 4.73375 139.416 3.88951 152.199C3.52769 157.565 3.82932 162.871 4.91478 168.177C6.84448 177.764 6.60321 187.592 6.96503 197.3C7.20624 204.053 7.80925 210.686 9.49774 217.198C11.5481 224.976 13.4175 232.754 15.5884 240.532C19.3272 253.737 26.5033 265.374 33.3175 277.132C41.3379 290.879 50.3231 303.963 59.3083 317.047C67.6302 329.107 79.5098 335.257 93.9223 337.005C97.9627 337.488 101.098 336.644 103.269 333.086C104.053 331.82 104.958 330.674 106.646 331.217C106.707 331.277 106.827 331.337 106.888 331.398C106.948 331.398 107.008 331.458 107.068 331.458C107.792 332.302 108.335 333.267 109.239 333.87C117.561 339.538 123.29 347.195 128.054 355.938C129.923 359.435 131.25 362.812 131.25 366.731C131.25 371.133 131.25 375.534 131.371 379.936C131.672 389.04 136.919 395.613 142.828 401.703C145.602 404.476 146.808 404.295 149.763 401.703C152.658 399.23 155.311 396.457 157.964 393.683C163.995 387.232 169.844 380.659 175.875 374.268C177.081 372.942 178.106 371.133 180.819 371.253C179.674 375.595 175.875 377.524 173.402 380.478C170.869 383.553 168.035 386.448 165.322 389.402C162.608 392.357 159.834 395.311 157.301 398.386C154.829 401.341 151.03 403.15 149.1 406.526C150.004 407.672 150.909 407.913 151.874 408.154C159.954 410.506 167.915 413.038 176.297 414.485C187.573 416.475 198.187 420.274 205.363 430.162C205.845 430.825 206.509 431.73 207.775 431.006C207.353 429.016 206.87 426.967 206.569 424.916C204.82 412.134 206.147 399.713 211.454 387.895C213.323 383.795 215.916 380.298 219.775 377.886C220.439 377.464 221.283 377.162 221.886 377.765C222.911 378.79 222.007 379.514 221.223 380.056C215.554 383.795 213.142 389.583 211.333 395.733C208.679 405.019 207.715 414.485 209.283 424.133C209.584 426.002 210.127 427.871 210.609 429.68C211.755 433.659 214.288 436.252 218.328 437.458C220.861 438.242 223.574 438.905 225.866 440.171C230.751 442.884 235.997 443.246 241.424 443.367C252.942 443.608 264.339 442.342 275.797 441.015C283.576 440.111 291.476 440.111 299.195 438.724C310.954 436.553 321.929 432.695 332.482 426.786C348.101 418.103 363.177 408.757 376.685 397C381.026 393.261 385.308 389.282 390.253 386.387C403.58 378.489 413.59 367.575 422.636 355.215C429.209 346.23 433.973 336.644 436.867 326.031C437.289 324.404 438.194 322.595 437.47 320.967C436.204 318.193 437.229 315.721 437.953 313.188C441.39 301.732 440.968 290.156 438.917 278.518C437.953 273.152 435.239 268.931 430.234 266.339C426.133 264.228 422.394 261.575 418.656 258.922C415.037 256.33 411.057 254.4 406.776 253.315C402.796 252.29 398.816 250.782 394.474 252.832C392.605 253.737 391.338 252.109 391.76 249.938C392.062 248.431 393.027 247.707 394.233 246.984C398.876 244.09 401.59 239.869 402.916 234.623C404.002 230.463 405.932 226.785 408.585 223.468C410.816 220.635 411.781 217.439 411.781 213.881C411.66 198.506 408.042 184.638 394.715 175.111C387.238 169.805 380.725 163.112 371.74 160.158C357.629 155.455 343.578 150.149 328.201 151.777C326.15 152.018 323.979 151.536 321.929 151.475C314.632 151.234 307.215 151.475 300.401 154.249C291.838 157.686 283.094 157.324 274.41 156.42C267.053 155.696 259.937 156.118 252.761 157.384C249.384 157.987 246.007 158.711 242.57 159.133C224.961 161.304 208.016 165.765 192.398 174.388C190.408 175.473 188.176 176.257 186.126 177.161C171.05 183.613 157.482 192.597 145.12 203.269C133.662 213.158 128.898 225.699 132.939 240.894C134.145 245.356 135.893 249.576 137.944 253.677C139.331 256.45 141.321 258.561 144.396 259.766C152.778 263.022 161.04 266.58 169.362 270.017C170.869 270.62 172.799 270.861 173.04 273.152C170.99 274.539 169.301 273.152 167.673 272.489C161.281 269.896 155.01 267.123 148.617 264.409C144.758 262.781 140.718 261.455 136.497 260.912C134.929 260.731 133.542 260.792 132.094 261.636C125.34 265.736 118.948 270.198 114.848 277.252C110.144 285.452 107.068 287.563 120.034 292.266C131.371 296.366 143.311 298.356 155.492 298.718C160.859 298.898 166.166 298.717 171.533 297.753C173.704 297.331 174.91 296.607 175.211 294.256C175.935 289.432 178.166 285.211 180.397 280.991C184.86 272.549 190.769 265.374 198.368 259.646C199.875 258.5 201.805 257.536 200.961 255.063C197.885 246.2 198.428 236.914 197.342 227.87C196.016 216.112 199.815 206.465 207.775 198.084C215.795 189.763 225.263 183.251 234.972 177.101C236.057 176.438 237.263 175.533 238.65 176.86C238.409 179.392 236.178 180.056 234.489 181.201C228.278 185.362 222.127 189.522 216.398 194.406C212.418 197.783 208.8 201.4 205.785 205.681C203.071 209.48 200.84 213.58 200.599 218.283C200.056 229.197 200.9 240.05 202.89 250.843C203.192 252.471 203.493 254.4 205.483 255.003C207.775 255.666 207.835 257.113 207.293 259.043C206.207 262.48 207.353 265.434 209.463 268.148C213.745 273.574 218.026 278.941 223.393 283.342C232.017 290.457 241.786 294.014 253.123 293.17C257.344 292.869 261.445 292.326 265.606 291.603C274.47 290.095 283.335 288.226 292.26 287.382C307.999 285.935 323.256 282.92 338.151 277.554C344.482 275.262 350.995 273.695 357.689 273.092C359.197 272.971 360.764 272.549 362.212 273.152C362.694 273.393 363.297 273.815 363.357 274.237C363.538 275.082 362.875 275.624 362.091 275.805C361.367 275.986 360.583 276.107 359.86 276.167C350.995 276.951 342.613 279.423 334.231 282.317C324.04 285.814 313.668 288.648 302.934 289.372C290.873 290.216 279.114 292.989 267.113 294.376C263.917 294.738 260.721 295.582 257.525 296.245C246.912 298.537 241.304 306.013 238.53 315.661C236.178 323.861 236.117 332.363 238.469 340.623C240.218 346.894 242.449 352.984 244.56 359.134C244.922 360.159 245.284 361.124 246.309 361.968C249.083 364.199 248.962 365.043 245.947 366.309C241.243 368.238 236.298 368.48 231.293 368.661C219.715 369.022 207.896 367.274 196.619 371.675C194.81 372.399 193.483 371.494 193.724 369.444C194.569 363.053 191.252 358.109 188.357 352.923C184.739 346.411 179.432 343.577 171.955 343.698C161.583 343.879 151.271 342.914 141.441 339.236C130.346 335.016 118.466 334.051 107.068 331.157C107.008 331.096 107.008 331.036 106.948 331.036C106.827 330.976 106.707 330.976 106.586 330.915C105.802 330.252 105.018 329.468 104.114 329.046C90.9676 322.836 81.5601 312.163 71.1277 302.576C70.5849 302.034 70.1026 301.431 69.5599 300.888C57.3183 288.708 54.9664 273.574 56.7152 257.355C57.7404 247.888 63.9517 242.823 73.4796 242.703C78.5451 242.643 83.309 243.788 88.0729 245.476C91.9927 246.863 94.4047 249.396 95.5505 253.435C97.3596 259.706 98.9276 265.977 100.315 272.368C101.279 276.89 102.908 281.111 107.189 284.307C108.335 282.136 109.42 280.146 110.385 278.217C115.029 269.173 122.627 263.203 131.009 258.018C135.29 255.365 135.23 255.244 133.119 250.541C130.949 245.597 129.26 240.592 128.537 235.166C126.607 220.936 132.155 209.54 142.527 200.496C155.371 189.221 169.663 179.935 185.463 173.122C189.141 171.554 192.94 170.046 196.438 168.177C208.619 161.665 221.645 158.168 235.213 156.359C246.188 154.852 256.922 151.656 268.139 151.777C270.913 151.837 270.973 149.968 271.033 147.918C271.395 137.125 270.189 126.513 268.199 115.961C266.812 108.665 265.003 101.37 262.952 94.1945C259.756 83.1 251.133 76.6484 241.846 71.0409C239.675 69.7144 237.022 69.7747 234.55 69.9556C226.409 70.4983 218.087 69.1114 210.006 71.3424C208.679 71.7041 207.835 70.9806 207.473 69.7144C207.172 68.6291 207.051 67.4232 206.629 66.3981C204.82 61.7554 201.745 58.9215 196.498 58.3788C183.232 56.9317 169.965 61.9966 159.713 70.5586C159.291 70.9203 158.869 71.3424 158.447 71.7042C158.266 71.8248 158.025 71.9453 157.844 71.9453C157.361 71.5233 156.939 71.1615 156.517 70.6791C156.517 70.4379 156.517 70.2571 156.578 70.0159C157 68.6291 159.593 66.0364 160.678 65.1922C171.955 56.2685 184.86 53.314 198.971 55.1229C204.217 55.7861 207.654 59.2229 209.584 63.8054C210.79 66.6393 212.358 67.3026 215.253 67.1217C222.127 66.7599 229.062 66.8202 235.937 66.6393C238.891 66.5791 241.726 66.9408 244.258 68.4482C255.535 75.3219 264.641 83.7633 267.837 97.3902C271.757 114.032 275.315 130.613 274.832 147.858C274.832 148.822 274.832 149.787 274.953 150.752C275.134 152.139 276.038 152.681 277.365 152.681C278.511 152.681 279.053 151.897 279.234 150.872C279.355 150.149 279.536 149.365 279.656 148.641C282.129 131.879 289.848 117.047 297.265 102.154C298.049 100.646 299.014 99.199 299.918 97.7519C310.532 80.5676 326.03 73.8146 345.869 76.5279C346.834 76.6484 347.799 76.769 348.704 77.0102C354.191 78.3367 358.413 77.2514 362.272 72.488C367.458 66.0967 375.177 63.0216 382.835 60.4289C388.805 58.3788 395.017 57.1729 401.469 57.5347C402.434 57.595 403.399 57.5347 404.364 57.595C414.072 58.5597 423.118 57.2332 431.862 52.2889C439.701 47.8271 448.506 45.5359 457.792 46.0785C460.687 46.2594 463.521 46.38 466.295 47.1638C471.481 48.6712 476.788 49.2139 482.155 49.4551C494.095 49.9977 503.623 55.6655 512.307 63.3231C515.201 66.0364 516.709 69.4129 516.95 73.1512ZM510.075 89.5517C511.704 84.9692 513.151 80.3264 513.03 74.2969C509.834 77.7337 508.387 80.9294 507.301 84.3663C506.879 85.7531 507.904 88.0443 506.276 88.4664C505.553 88.6473 505.07 88.5267 504.769 88.2855C503.985 87.6223 504.045 85.934 503.442 85.0898C503.261 84.7883 502.959 84.4266 502.598 84.3663C498.557 83.1604 498.738 80.2661 499.522 77.0705C499.763 76.0454 500.366 74.8395 498.979 73.9954C496.567 74.4778 493.673 77.2514 491.683 74.4778C489.21 70.9806 487.884 73.1513 485.23 74.8998C491.683 77.372 495.663 82.0751 500.065 86.2355C501.211 87.3208 502.357 88.2855 503.623 89.2502C504.347 89.7929 505.13 90.3355 505.914 90.8179C507.482 91.8429 509.291 91.7224 510.075 89.5517ZM510.196 71.3424C512.126 69.4732 511.583 68.1468 510.075 66.5791C505.673 61.9363 500.065 59.1024 494.396 56.3288C493.251 55.7861 492.045 55.6052 491.381 56.8714C489.331 60.6097 486.256 63.9863 486.256 69.0512C488.849 68.3276 489.753 66.3378 491.261 64.951C492.889 63.4436 493.311 59.1627 496.326 60.851C498.678 62.1172 495.844 64.8305 495.422 66.9408C495.12 68.3879 493.914 69.7144 495.06 71.4027C497.532 70.8601 499.221 68.9909 501.15 67.4835C502.356 66.5791 503.563 65.1319 505.13 66.3981C506.397 67.4232 505.673 68.81 505.251 70.0762C504.286 72.9101 502.899 75.6234 502.839 79.6029C506.578 77.1308 507.784 73.6336 510.196 71.3424ZM506.276 161.304C508.628 144.843 505.372 130.07 491.743 118.916C489.572 117.167 487.462 115.961 484.688 115.479C475.22 113.791 465.692 113.791 456.164 114.454V114.394C456.164 114.333 456.104 114.333 456.104 114.273C456.285 111.741 458.275 111.801 460.144 111.62C466.054 111.077 471.964 111.56 477.873 111.861C479.501 111.921 481.19 112.826 483.059 111.379C481.431 108.364 481.311 104.867 480.406 101.551C479.683 98.7167 478.657 96.0033 476.667 93.893C472.386 89.3105 467.923 84.7883 462.737 81.1706C457.732 77.6734 454.536 77.7941 449.772 81.653C445.31 85.2707 441.028 89.0091 436.686 92.8077C434.576 94.6166 434.817 95.6416 437.41 96.9078C438.254 97.3298 439.159 97.7519 440.124 97.8725C447.903 98.8372 452.305 103.54 454.536 110.715C454.898 111.921 455.561 113.067 456.044 114.273C456.044 114.333 456.044 114.394 456.044 114.454C456.104 114.454 456.104 114.454 456.104 114.454C456.405 116.383 456.526 118.072 454.234 119.217C450.254 121.147 450.194 121.328 451.4 125.367C457.792 146.893 458.335 168.599 453.993 190.607C450.496 208.515 445.129 225.82 437.772 242.522C436.927 244.451 436.385 246.863 433.49 247.587C432.947 244.632 434.334 242.462 435.239 240.231C439.46 230.161 443.32 219.971 446.274 209.48C454.114 181.382 457.129 153.164 448.023 124.704C447.541 123.257 447.601 121.448 446.395 120.483C442.656 117.529 440.666 113.368 438.194 109.51C434.817 104.324 430.234 100.887 424.626 98.4754C412.505 93.2297 400.022 92.1444 386.996 94.0739C377.89 95.4004 370.292 98.9578 364.141 105.892C360.463 110.052 356.483 113.911 353.046 118.313C347.075 125.97 342.794 134.412 340.503 143.878C340.141 145.265 339.236 146.712 340.623 148.702C347.679 147.677 353.95 151.717 360.764 153.224C373.247 155.937 384.041 161.786 393.69 169.926C399.117 174.448 405.208 178.307 408.525 184.879C413.59 194.828 415.942 205.319 415.158 216.474C414.977 219.007 414.615 221.599 412.987 223.468C406.474 230.704 406.354 241.195 399.358 248.491C404.906 249.878 409.791 250.843 414.314 252.953C418.836 255.063 422.696 258.319 426.917 260.852C428.364 261.756 429.872 262.661 431.38 263.384C437.772 266.52 441.028 271.826 442.415 278.579C443.681 284.608 443.862 290.698 443.802 296.848C443.802 298.295 443.44 299.803 444.526 301.853C448.204 296.969 451.822 292.869 455.983 289.191C460.205 285.452 463.461 280.991 465.873 275.926C468.707 270.077 471.964 264.409 475.582 258.983C487.281 241.376 493.733 221.479 499.04 201.34C502.658 188.316 504.346 174.75 506.276 161.304ZM487.823 54.7611C484.808 53.0728 483.12 53.2537 482.034 56.2684C481.492 57.8361 480.285 59.2229 479.441 60.7303C478.295 62.8407 476.547 64.8305 477.451 68.207C482.275 64.5893 485.23 60.0671 487.823 54.7611ZM482.577 72.9101C482.818 72.6689 482.517 71.2218 482.095 70.9203C480.527 69.7747 479.803 71.1615 479.14 72.3072C480.225 72.8498 481.311 73.9954 482.577 72.9101ZM478.537 54.0375C474.255 52.7713 474.255 52.7713 472.567 56.0876C471.361 58.4391 470.034 60.7304 468.828 63.0819C468.225 64.1672 467.381 65.3732 468.647 66.5791C473.29 63.6849 475.099 61.3936 478.537 54.0375ZM472.084 72.0057C472.627 71.9454 473.109 71.463 472.928 70.7998C472.748 70.1968 472.386 69.5939 471.783 69.8953C469.25 70.9807 466.838 71.1615 464.184 69.9556C463.159 69.4732 461.772 70.6791 461.411 72.7895C465.029 72.488 468.587 72.3072 472.084 72.0057ZM467.32 56.3891C469.25 52.0478 469.25 51.8669 464.486 50.8418C462.918 50.5404 461.35 50.2992 459.843 50.1183C451.038 49.2742 442.596 51.4448 434.455 55.364C432.766 56.2081 432.525 57.4141 432.465 59.0421C432.224 67.1217 430.113 74.8998 427.58 82.4971C427.158 83.7633 425.952 85.0898 427.219 86.6575C430.173 83.4015 430.173 83.4016 430.837 79.2412C431.741 72.9704 433.49 66.9408 435.782 61.0318C436.324 59.5847 436.747 58.0773 438.013 57.0523C439.34 55.967 440.546 56.2685 441.088 57.9568C441.571 59.2833 441.088 60.6097 440.847 61.9363C439.943 66.6393 438.495 71.2218 436.988 75.744C436.626 76.8293 435.54 78.2161 437.892 79.3014C440.003 76.1058 441.51 72.7292 442.536 68.9909C443.501 65.4937 444.646 62.0568 445.852 58.62C446.335 57.2935 446.938 55.364 448.928 56.1479C450.496 56.8111 449.953 58.4391 449.591 59.7053C448.566 63.1422 447.42 66.5187 445.913 71.2218C450.254 67.182 452.425 63.2628 454.476 59.2229C455.501 57.1729 456.466 55.0626 457.551 53.0728C458.034 52.2287 458.757 51.4448 459.722 51.5654C459.903 51.5654 460.144 51.686 460.385 51.8066C461.531 52.4699 461.29 53.7963 460.868 54.942C460.446 56.0273 459.843 56.992 459.421 58.0773C458.516 60.1877 457.431 62.2377 456.828 64.4084C456.345 65.9158 455.561 68.0864 457.37 69.0512C458.938 69.9556 460.084 68.1468 461.169 67.182C464.365 64.2878 465.632 60.1877 467.32 56.3891ZM448.506 114.936C450.857 115.72 452.003 114.816 451.4 112.464C450.074 107.279 448.083 102.636 441.993 101.37C439.943 100.948 438.013 100.224 436.023 99.6814C435.782 99.9828 435.48 100.224 435.239 100.465C438.797 103.781 441.45 107.701 443.923 111.74C445.008 113.549 446.697 114.333 448.506 114.936ZM429.45 91.24C428.003 90.2149 426.857 90.9988 425.711 90.6973C424.625 90.4562 423.54 90.1547 422.394 90.1547C421.249 90.0944 419.982 90.3958 419.801 91.7826C419.62 92.868 420.646 93.3503 421.55 93.6518C422.455 93.9533 423.299 94.3151 424.203 94.6768C428.183 96.1239 428.244 96.1239 429.45 91.24ZM427.399 60.4289C427.399 60.1274 427.219 59.645 426.977 59.5244C426.435 59.2832 425.892 59.4641 425.711 60.0671C425.53 60.6701 425.832 61.0921 426.435 61.3333C427.158 61.5142 427.339 60.9715 427.399 60.4289ZM420.706 71.1615C420.947 68.4482 422.997 65.6746 420.947 62.4789C416.967 65.2525 413.771 68.207 410.997 71.6438C409.188 73.9351 408.042 76.5279 408.163 79.5426C408.223 80.5677 408.344 81.4721 409.55 81.7133C410.635 81.8942 411.419 81.2912 411.841 80.3867C412.384 79.1808 412.746 77.8543 413.108 76.5881C413.59 74.7793 414.012 72.9101 414.555 71.1012C414.796 70.438 415.339 69.835 416.243 69.9556C417.269 70.0762 417.45 70.9806 417.389 71.6438C416.967 74.4777 416.364 77.2513 415.882 80.0852C415.279 83.2206 414.615 86.356 416.485 90.2752C419.319 86.959 419.198 83.8839 419.5 80.8691C419.801 77.6131 420.404 74.4175 420.706 71.1615ZM411.6 65.3128C412.505 64.4687 413.892 63.8658 413.711 61.7554C409.851 61.5745 405.871 61.3333 401.952 61.1525C389.589 60.4892 378.614 64.4084 368.483 71.1012C366.493 72.4277 364.383 73.8145 363.538 76.769C366.192 77.3719 368.604 77.8543 370.956 78.4573C374.333 79.2411 377.529 80.5073 380.303 82.678C380.906 83.1604 381.509 83.8839 381.147 84.6678C380.664 85.7531 379.639 85.6325 378.735 85.2104C377.529 84.6677 376.383 83.9442 375.177 83.4015C370.775 81.4118 365.89 79.6632 361.307 80.6882C355.82 81.8941 350.694 81.2912 345.447 80.5074C327.899 77.9146 313.848 83.5222 303.838 98.5358C302.994 99.802 302.089 101.068 301.366 102.395C295.154 113.007 290.391 124.222 286.049 135.738C284.36 140.2 283.456 144.963 282.913 149.727C282.672 151.596 283.094 153.465 285.566 152.983C290.089 152.139 294.732 152.922 299.195 151.475C306.19 149.184 313.366 148.34 320.663 148.581C323.919 148.702 327.175 148.702 330.432 148.702C336.221 148.702 336.281 148.702 337.668 143.275C340.201 133.085 344.905 123.981 351.478 115.841C356.423 109.69 361.91 104.143 367.76 98.8975C369.026 97.7519 370.714 96.9078 371.257 95.2195C371.921 93.1695 373.549 92.3856 375.298 91.4811C383.378 87.0796 391.459 82.7383 400.866 81.8941C402.977 81.7132 404.303 80.5676 404.545 78.2161C405.027 72.8498 408.042 68.9305 411.6 65.3128ZM410.454 90.5767C411.962 90.8179 412.565 89.9134 412.505 88.5266C412.444 87.2604 412.806 85.6325 411.238 85.0295C409.791 84.4869 407.922 84.0045 406.896 85.2707C403.941 88.8885 399.178 86.4766 395.921 88.8281C395.559 89.0693 394.655 88.9488 394.293 88.6473C390.132 85.1501 387.599 89.2502 384.222 90.2752C384.584 90.7576 384.705 90.9988 384.765 90.9988C393.328 90.0341 401.891 89.1296 410.454 90.5767ZM243.354 300.104C244.078 299.381 245.284 298.778 244.741 297.27C223.755 293.411 211.152 279.363 201.443 261.394C190.166 268.931 183.111 279.664 178.468 292.085C177.925 293.592 177.081 295.462 178.528 296.969C180.156 298.657 181.724 297.15 183.232 296.547C185.523 295.642 187.754 294.497 190.046 293.532C193.302 292.206 196.679 291.723 200.177 292.085C204.519 292.567 207.715 294.798 209.705 298.597C210.79 300.768 210.609 302.637 208.197 303.722V303.662C208.137 303.662 208.137 303.662 208.076 303.662C205.966 295.823 201.564 293.11 193.785 295.16C190.83 295.944 188.056 297.27 185.282 298.476C181.242 300.285 177.141 301.31 172.618 301.672C166.527 302.154 160.437 302.697 154.346 302.637C152.778 302.576 151.09 302.757 151.03 304.868C150.728 312.465 150.004 320.062 152.658 327.479C155.01 322.595 155.311 317.289 156.216 312.163C156.457 310.837 156.457 309.51 156.638 308.184C156.819 307.038 157.181 305.772 158.507 305.652C160.316 305.531 160.618 307.099 160.799 308.425C160.859 308.727 160.859 309.088 160.919 309.39C161.04 310.958 160.98 312.525 161.221 314.093C161.884 319.52 162.125 325.067 164.839 330.252C168.397 325.067 168.518 324.464 166.528 319.58C165.261 316.565 163.814 313.671 162.608 310.656C162.427 310.234 162.186 309.752 162.186 309.209C162.186 308.666 162.487 308.063 163.633 307.641C165.563 311.44 167.492 315.239 169.482 319.218C170.749 317.771 170.266 316.324 170.628 315.118C171.171 313.188 170.869 310.475 173.282 309.812C176.055 309.088 176.176 312.284 177.623 313.611C179.131 313.008 178.95 310.958 180.458 310.234C182.448 309.39 183.171 311.862 185.041 311.802C185.041 309.752 184.98 307.882 185.041 305.953C185.101 304.928 185.463 304.024 186.608 303.903C187.694 303.782 188.357 304.566 188.719 305.531C189.202 306.797 189.503 308.063 189.925 309.39C190.89 312.344 190.89 315.6 192.82 318.253C193.182 314.153 193.121 310.174 193.182 306.134C193.242 304.626 193.483 303.119 193.845 301.612C194.026 300.707 194.568 299.803 195.654 299.622C197.041 299.441 197.825 300.285 198.187 301.431C198.91 303.601 199.513 305.772 200.056 308.003C200.659 310.294 201.081 312.646 201.564 314.937C202.287 312.163 202.589 309.51 202.89 306.857C203.312 303.722 205.182 302.757 208.076 303.481C208.076 303.541 208.077 303.541 208.137 303.601C208.197 303.601 208.197 303.541 208.257 303.541C208.74 306.074 208.257 309.51 212.901 308.063C213.926 307.762 214.529 309.51 214.83 310.596C215.675 313.912 216.459 317.289 217.122 320.665C217.423 322.112 217.966 323.62 216.82 324.705C215.675 325.248 215.072 324.283 214.469 324.343C210.609 325.006 209.644 322.775 208.981 319.64C208.378 316.806 208.077 313.852 206.147 310.535C204.941 317.59 205.363 323.921 205.182 330.192C205.122 331.94 205.122 333.629 204.941 335.377C204.88 336.161 204.519 336.885 203.614 337.005C202.468 337.186 201.805 336.463 201.564 335.498C201.262 334.413 201.202 333.207 200.961 332.121C199.875 325.73 198.91 319.278 197.765 312.887C197.584 311.983 198.126 310.475 196.016 310.415C196.016 314.877 196.016 319.278 196.016 323.68C196.016 327.298 196.076 330.976 196.016 334.593C196.016 335.739 195.956 337.066 194.508 337.307C193.061 337.488 192.578 336.282 192.337 335.136C191.734 332.604 191.192 330.011 190.528 326.936C189.624 329.348 190.468 331.217 190.347 333.086C190.287 334.111 189.986 335.016 188.779 335.076C187.875 335.136 187.392 334.352 187.211 333.629C186.066 329.167 185.101 324.705 183.955 320.243C183.533 318.736 183.413 316.987 181 315.54C180.88 320.122 180.819 323.861 180.578 327.659C180.458 329.348 181.422 332.182 178.648 332.121C176.478 332.061 177.201 329.408 176.96 327.84C176.357 323.559 176.417 319.158 174.307 314.997C172.618 316.625 173.04 318.434 172.98 320.062C172.859 324.102 173.04 328.082 173.643 332.061C173.764 332.785 173.583 333.629 172.739 333.991C171.533 334.473 171.05 333.568 170.568 332.785C170.206 332.242 170.447 331.157 169.301 331.337C164.96 335.98 163.03 335.498 160.678 329.529C159.894 327.478 160.196 325.006 158.206 323.077C157.482 325.428 157 327.418 156.276 329.408C155.673 331.036 154.889 332.724 152.839 332.845C151.09 332.905 150.185 331.579 149.522 330.071C149.16 329.227 148.979 328.202 147.773 327.72C147.23 328.926 146.748 330.192 146.145 331.337C145.361 332.905 144.396 334.473 142.346 334.413C140.054 334.352 139.27 332.423 138.487 330.674C137.763 329.107 138.064 326.996 136.436 325.428C135.893 326.393 135.532 327.117 135.11 327.72C132.456 331.699 132.034 331.82 128.356 328.624C127.451 327.84 127.089 327.901 126.004 328.262C122.265 329.468 121.541 328.986 120.094 325.428C119.612 324.223 119.853 322.715 118.828 321.69C113.34 323.439 112.435 322.896 111.229 317.108C110.807 315.178 110.506 313.249 110.023 310.415C109.119 313.128 108.576 314.937 107.852 316.686C107.129 318.434 106.405 320.545 103.993 320.183C102.003 319.881 101.46 318.012 101.159 316.264C100.737 313.852 100.375 311.38 100.194 308.907C100.013 306.797 100.134 304.687 100.134 302.516C98.5054 304.687 97.7817 306.857 96.9375 308.968C96.3345 310.415 95.4902 311.862 93.6208 311.621C91.8117 311.38 91.2087 309.812 90.9675 308.304C90.4851 305.35 90.1232 302.335 89.7011 299.32C88.0126 299.501 88.0729 301.009 87.289 301.793C85.2387 303.782 83.5501 303.541 82.5853 300.828C82.0426 299.441 81.8618 297.873 81.8015 296.366C81.6809 293.532 81.7411 290.698 81.7411 287.804C76.6756 288.226 76.4947 288.045 75.8917 283.764C75.7108 282.558 76.3742 281.111 75.1681 280.146C73.8414 280.568 73.7207 281.895 72.9368 282.739C70.3437 285.452 67.9317 285.151 67.1477 281.594C65.5195 274.298 64.1929 266.942 66.2432 259.465C66.7859 257.596 67.2081 255.727 68.8363 254.46C69.8614 253.677 70.7659 252.29 72.2735 252.832C73.7811 253.375 73.9016 254.943 73.7207 256.269C73.178 260.972 73.2987 265.796 71.0675 270.258C69.4996 273.454 68.3537 276.83 69.9216 280.448C71.9116 280.086 72.0926 278.579 72.575 277.433C74.0223 273.876 75.1681 270.198 75.8917 266.459C76.3741 264.048 76.6757 261.575 77.2787 259.103C77.5802 257.716 77.5199 255.546 79.6908 255.968C81.3793 256.269 80.7762 258.138 80.6556 259.405C80.535 260.731 80.1129 261.997 79.932 263.324C79.2084 269.414 77.8818 275.504 79.0878 282.799C82.0427 276.107 82.5854 270.017 83.8517 264.048C84.3341 261.937 84.0327 258.018 86.3242 258.38C89.6409 258.922 87.5906 262.54 87.2288 264.65C85.48 274.117 84.6959 283.583 84.5753 293.17C84.5753 294.557 84.0326 296.245 85.7814 297.21C86.9272 296.245 87.1081 294.859 87.4699 293.592C89.1584 287.503 90.1836 281.292 90.9675 275.021C91.1484 273.514 91.3896 272.007 91.6911 270.499C91.8721 269.776 92.4148 269.112 93.3193 269.173C94.1032 269.233 94.5253 269.776 94.6459 270.439C94.6459 270.559 94.6459 270.62 94.6459 270.74C94.6459 272.429 94.7064 274.177 94.4652 275.865C93.2591 284.066 93.3194 292.266 93.3797 300.526C93.3797 302.335 93.6208 304.144 93.8018 306.134C94.5254 305.651 95.0079 305.531 95.0682 305.29C97.2994 298.115 98.2642 290.698 99.7115 283.402C99.8321 282.679 99.8924 281.774 99.5909 281.171C97.9024 277.614 96.8169 273.876 95.9124 270.137C95.0078 266.278 94.3445 262.359 93.5002 258.5C91.9324 251.084 87.5302 248.371 81.0175 247.285C79.1481 246.984 77.2183 246.622 75.3489 246.501C66.1828 245.959 60.8159 250.722 60.3938 259.887C60.2129 263.686 60.6953 267.545 60.635 271.343C60.454 282.016 65.5798 290.336 72.2132 298.054C73.4795 299.501 74.7459 300.948 76.1932 302.215C81.8014 307.4 87.289 312.766 93.1987 317.65C101.279 324.283 110.445 328.986 120.878 330.734C127.089 331.759 133.3 333.086 139.21 335.377C150.427 339.779 162.246 340.864 174.126 341.226C175.995 341.286 177.985 341.708 179.372 339.839C180.035 338.935 181.242 338.995 181.845 339.9C184.679 344 189.202 343.758 193.242 344.12C198.428 344.542 203.915 346.231 208.619 342.13C209.041 341.769 209.765 341.708 210.067 342.251C210.308 342.673 210.489 343.397 210.308 343.819C209.283 346.532 206.991 347.195 204.338 347.316C199.091 347.497 193.845 347.014 187.815 346.653C191.855 353.104 195.714 358.772 197.101 365.646C197.403 367.153 198.669 367.093 199.875 366.731C209.283 364.199 218.871 365.224 228.459 364.982C231.535 364.922 234.61 364.862 237.625 364.5C241.665 364.078 242.027 363.535 240.881 359.857C239.917 356.541 238.65 353.345 237.505 350.089C234.369 341.347 232.74 332.423 233.524 323.077C234.188 314.455 236.962 306.556 243.354 300.104ZM147.05 304.868C147.05 302.938 145.964 302.154 144.276 301.853C138.245 300.707 132.275 299.562 126.245 298.416C124.436 298.054 123.411 298.416 123.109 300.526C122.205 307.159 121.602 313.852 122.265 320.545C122.385 321.931 122.325 323.559 124.134 324.705C125.943 321.509 126.245 318.193 126.426 314.756C126.667 311.319 127.089 307.943 127.572 304.506C127.692 303.541 128.416 302.757 129.562 302.999C130.346 303.179 130.888 303.843 130.949 304.626C130.949 306.315 131.009 308.063 130.768 309.752C130.165 314.153 129.923 318.495 130.225 322.896C130.285 324.102 129.984 325.67 131.913 326.273C133.481 324.042 133.903 321.389 134.446 318.796C135.29 314.515 135.893 310.113 136.617 305.832C136.858 304.506 136.979 302.818 138.788 303.119C140.416 303.36 140.356 305.049 140.296 306.375C140.175 308.063 139.994 309.812 139.934 311.5C139.873 317.771 139.632 324.042 142.406 330.011C146.024 321.931 146.989 313.49 147.05 304.868ZM120.275 297.994C120.576 297.029 119.792 296.607 119.129 296.366C117.742 295.884 116.416 294.919 114.365 295.281C113.039 305.953 113.461 314.033 115.451 317.711C115.752 317.469 116.114 317.228 116.235 316.927C119.069 310.958 118.225 304.144 120.275 297.994ZM109.239 297.331C110.385 291.482 110.265 291.482 103.571 288.105C102.666 297.512 102.305 306.254 104.536 314.937C107.37 309.329 108.033 303.24 109.239 297.331Z" fill="black"/>
<path d="M456.06 114.181C456 114.181 456 114.181 456 114.181C456 114.121 456 114.06 456 114C456 114.06 456.06 114.121 456.06 114.121V114.181Z" fill="black"/>
<path d="M441.45 133.378C441.932 135.972 441.872 138.686 441.993 140.375C441.691 145.321 441.872 149.363 440.364 153.163C439.701 154.792 438.978 156.36 436.987 156.662C434.756 156.963 433.429 155.576 432.344 153.947C430.957 151.836 430.294 149.483 429.63 147.071C428.002 141.159 427.701 135.006 425.65 129.216C425.108 127.708 425.53 126.2 425.952 124.752C427.158 121.133 429.57 119.987 433.007 121.736C437.832 124.149 440.485 128.251 441.45 133.378ZM437.53 152.137C438.797 148.699 438.977 145.08 439.038 141.4C438.797 138.927 438.796 136.454 438.374 134.041C437.771 130.784 436.204 127.949 433.49 125.898C430.837 123.907 429.329 124.511 428.967 127.768C428.847 128.914 428.726 130.06 428.967 131.206C430.113 136.997 431.319 142.788 432.646 148.518C433.007 149.966 433.731 151.414 434.575 152.62C435.661 154.128 436.927 153.826 437.53 152.137Z" fill="black"/>
<path d="M433.068 89.3437C433.43 89.1628 433.792 88.9216 434.153 88.7407C433.792 88.9819 433.43 89.1628 433.068 89.3437Z" fill="black"/>
<path d="M404.605 294.555C411.178 296.365 413.228 303.483 408.645 308.61C407.62 309.756 406.354 310.661 405.148 311.565C400.143 315.064 394.956 318.382 389.589 321.337C383.8 324.595 377.71 326.706 370.956 325.861C366.312 325.5 361.85 326.585 357.327 327.369C349.126 328.877 341.769 326.344 334.713 322.664C331.397 320.915 331.095 318.563 333.628 315.667C336.824 312.048 340.623 309.092 344.724 306.619C345.508 306.137 346.533 305.835 347.437 305.835C359.136 305.956 370.112 303.121 380.604 298.114C385.79 295.641 391.399 294.253 397.188 293.952C399.72 293.771 402.193 293.892 404.605 294.555ZM402.736 309.153C405.449 307.343 408.404 305.292 407.258 301.371C406.113 297.33 402.313 297.692 399.178 297.571C392.363 297.39 385.971 299.441 379.881 302.336C373.066 305.594 366.011 307.584 358.533 308.549C352.322 309.394 345.93 310.238 341.166 315.064C340.141 316.09 338.814 316.09 337.427 316.029C336.221 315.969 335.377 316.994 334.955 318.14C334.472 319.588 335.618 320.252 336.583 320.734C341.648 323.087 346.895 324.836 352.985 325.017C354.975 324.715 357.448 324.474 359.86 323.931C363.056 323.207 366.312 322.725 369.508 322.966C376.926 323.569 383.438 321.337 389.589 317.537C394.112 314.762 398.454 311.988 402.736 309.153Z" fill="black"/>
<path d="M382.293 117.091C385.127 118.66 387.238 120.71 387.358 124.812C386.333 130.543 383.8 136.333 379.157 140.797C376.323 143.512 369.629 139.53 368.966 134.946C368.725 133.257 369.026 131.508 369.508 129.819C370.654 125.958 372.222 122.279 374.453 118.901C377.167 114.739 377.83 114.618 382.293 117.091ZM383.619 123.968C383.619 121.253 381.147 120.348 378.976 119.685C376.624 118.961 376.021 121.012 375.298 122.399C373.428 125.717 372.041 129.216 371.559 132.352C371.318 134.946 372.101 136.334 373.73 137.299C374.936 137.962 376.323 138.807 377.408 137.6C380.785 133.679 383.559 129.336 383.619 123.968Z" fill="black"/>
<path d="M378.313 196.955C380.061 197.739 381.81 198.765 381.69 201.117C381.569 203.108 380.182 204.435 378.554 204.857C373.066 206.184 369.147 209.743 365.227 213.423C362.935 215.534 360.041 216.68 356.845 216.68C348.282 216.68 340.261 219.032 332.301 221.928C328.02 223.556 323.618 224.883 318.914 224.642C312.039 224.341 306.793 220.902 305.044 215.413C303.054 209.14 305.104 202.927 311.195 198.946C318.673 194.06 326.814 190.863 335.919 191.104C337.126 191.104 338.271 190.983 339.417 191.104C349.307 192.129 359.196 193.155 369.026 194.241C372.222 194.663 375.358 195.628 378.313 196.955ZM374.574 202.625C375.539 202.324 376.926 202.324 376.865 200.514C374.272 198.946 371.257 198.282 368.242 197.98C358.594 196.895 348.885 195.809 339.236 194.904C333.266 194.301 327.959 196.231 323.376 200.152C322.653 200.755 321.929 201.419 321.206 202.022C320.482 202.685 319.577 203.168 318.612 202.685C317.467 202.082 318.009 201.057 318.251 200.152C318.371 199.669 318.492 199.127 318.733 198.041C314.632 199.428 311.738 201.238 309.507 203.952C304.501 210.165 306.974 218.489 314.512 221.083C317.467 222.109 320.542 222.229 323.557 221.445C326.874 220.54 330.191 219.515 333.387 218.369C340.442 215.835 347.498 213.664 355.096 213.784C359.197 213.845 362.393 211.975 365.167 209.08C367.88 206.244 370.835 203.832 374.574 202.625Z" fill="black"/>
<path d="M366.976 370.861C366.131 373.153 364.563 372.912 363.357 373.032C332.301 375.807 301.245 377.979 270.128 373.816C264.4 373.032 258.912 371.464 253.846 368.569C252.882 368.026 251.676 367.302 252.46 365.975C253.063 365.01 254.148 365.492 254.992 365.975C263.073 371.162 272.36 371.585 281.465 372.308C306.733 374.299 331.879 372.791 357.025 370.68C360.222 370.438 363.478 369.775 366.976 370.861Z" fill="black"/>
<path d="M275.797 335.21C275.556 339.071 275.134 342.871 273.506 346.43C272.662 348.36 271.455 350.109 269.526 351.195C266.028 353.186 263.013 351.979 262.048 348.119C261.505 346.068 261.325 343.957 260.963 341.906C260.36 338.045 258.49 334.667 256.862 331.229C254.751 326.645 253.365 321.879 254.691 316.752C255.234 314.641 254.751 312.047 258.068 311.564C261.505 311.082 265.003 309.815 267.415 313.495C271.878 320.13 275.436 327.067 275.797 335.21ZM272.481 335.874C272.843 328.394 269.224 322.241 265.485 316.209C263.797 313.495 261.988 313.676 260.119 316.269C257.043 320.552 256.621 325.016 259.154 329.721C261.807 334.667 263.857 339.734 264.46 345.344C264.581 346.792 264.521 348.662 266.571 348.843C268.32 349.024 269.345 347.697 270.129 346.309C271.938 343.112 272.541 339.553 272.481 335.874Z" fill="black"/>
<path d="M259.998 116.91C257.103 117.332 256.38 115.523 255.535 114.135C247.877 102.493 237.384 94.1087 225.444 87.1718C219.293 83.6129 213.022 82.4065 206.147 83.5526C201.624 84.2764 197.041 84.8796 192.518 85.5432C191.976 85.6035 191.192 85.4226 190.83 85.7242C185.644 89.826 179.01 90.9117 173.523 94.35C172.92 94.7119 172.498 95.4358 171.473 96.5819C185.282 104.665 196.016 115.221 199.695 131.206C200.961 136.816 202.529 142.486 202.046 149.181C199.152 147.553 199.212 145.562 198.971 143.813C198.428 139.229 197.524 134.765 196.378 130.301C192.157 114.135 180.397 104.725 166.709 97.0644C165.08 96.1596 163.271 96.7025 161.643 97.1247C156.517 98.3914 151.331 98.3311 146.326 96.8231C137.341 94.2293 128.235 93.9881 119.009 94.2294C117.863 94.2897 116.657 94.4103 115.571 94.2294C106.586 92.9023 101.521 98.4518 97.5407 105.147C93.3798 112.205 91.3898 119.986 91.2089 128.19C91.028 136.816 91.0281 145.442 91.7517 154.007C92.2341 159.315 92.1737 164.744 92.234 170.052C92.234 171.5 92.7165 173.129 91.0883 174.154C89.4601 174.034 89.5204 172.707 89.4601 171.681C88.9777 156.963 87.7716 142.245 88.3143 127.466C88.6158 119.262 90.7264 111.602 94.5256 104.424C97.2392 99.2963 100.616 94.7722 106.104 92.1181C109.662 90.4292 111.953 87.4734 113.461 83.6732C116.295 76.4951 119.009 69.3773 119.793 61.6562C120.034 61.3546 120.154 60.9323 120.034 60.3291C120.034 60.2085 119.974 60.0878 119.913 60.0275C119.974 59.2433 119.974 58.5195 119.974 57.7354C120.034 51.5827 118.828 45.9728 115.27 40.9059C112.195 36.4422 108.395 35.3564 103.33 37.2866C97.3599 39.5788 95.8523 38.9756 93.5608 32.8832C92.3547 29.6862 91.3295 26.3686 90.3647 23.051C86.9274 10.9265 96.8171 -1.01695 109.36 0.0688201C110.506 0.189461 111.652 0.310073 112.737 0.792639C122.446 4.89444 130.888 10.3836 135.833 20.3365C139.632 28.1179 142.225 36.3215 144.698 44.5251C146.447 50.4365 148.618 56.1067 150.849 61.8371C152.236 65.2754 154.105 68.2915 156.638 70.7646C156.638 71.0662 156.759 71.4281 157.06 71.6694C157.362 71.9107 157.663 72.0313 157.965 72.0313C158.568 72.5139 159.171 72.9965 159.834 73.479C162.789 75.5903 165.925 77.5206 169 79.3905C170.99 80.5969 173.101 81.6826 175.453 81.6826C184.197 81.562 193.061 82.9494 201.745 81.1397C211.996 79.0285 221.283 80.3556 230.208 86.267C237.444 91.0323 244.078 96.3406 250.771 101.83C251.013 103.157 251.796 104.182 252.942 104.906C255.234 108.887 259.214 111.903 259.998 116.91ZM174.608 87.5941C177.744 89.5243 179.855 87.2925 182.086 85.7242C177.081 85.5432 172.498 83.7336 167.734 82.7081C168.156 88.5592 168.156 88.5592 172.98 87.5941C173.463 87.5338 174.186 87.3528 174.608 87.5941ZM162.548 81.4413C162.849 81.5017 163.693 80.7175 163.633 80.4762C163.211 78.6666 161.583 78.1841 159.352 77.0983C160.196 79.3905 160.678 81.0191 162.548 81.4413ZM164.899 92.7816C161.824 88.5592 161.703 88.6195 159.05 93.9881C160.98 94.0484 162.729 93.3849 164.899 92.7816ZM156.759 88.8608C160.316 85.7845 160.316 85.7844 156.759 83.251C156.759 85.1812 155.794 86.9909 156.759 88.8608ZM153.864 78.546C154.769 76.6157 153.623 75.2283 151.874 73.5393C150.065 78.9079 147.532 83.3113 147.472 89.7656C150.668 85.7241 152.236 82.1049 153.864 78.546ZM151.874 94.531C154.588 93.5658 152.176 91.8769 152.477 90.3085C150.728 91.153 149.643 92.2387 149.944 94.1087C149.944 94.35 151.331 94.7722 151.874 94.531ZM149.703 70.282C150.487 69.3169 149.703 68.4724 149.341 67.6883C144.517 57.9163 141.683 47.4808 138.426 37.1056C138.125 36.1405 137.823 35.1151 137.461 34.15C136.617 31.4959 136.075 28.6005 133.602 26.067C129.682 34.7532 126.969 43.3187 126.607 52.6081C129.381 48.9285 130.225 44.4045 132.095 40.3027C132.878 38.5534 133.24 35.3564 135.954 36.5628C136.497 36.8041 136.798 37.166 136.919 37.5882C137.22 38.7343 136.135 40.4233 135.773 41.6901C134.567 45.8522 132.095 49.5921 131.25 54.0558C132.999 53.8749 134.024 51.5223 135.652 53.0906C136.798 54.1764 136.135 55.6241 135.894 56.8909C135.773 57.4337 135.592 57.9766 135.351 58.5195C133.059 64.6119 130.768 70.7043 127.089 76.1332C125.521 78.4253 124.979 80.8985 124.979 83.6732C127.813 80.7779 129.502 77.2792 130.949 73.5996C132.456 69.6788 134.024 65.758 135.652 61.8975C136.195 60.6911 136.979 59.5449 137.703 58.4592C138.185 57.7957 138.909 57.5544 139.693 57.7957C140.537 58.0973 140.899 58.8814 140.718 59.6053C140.416 61.1133 139.994 62.561 139.391 63.9483C137.703 67.8089 135.833 71.6091 134.205 75.4697C133.059 78.1841 131.733 80.9588 132.637 84.759C135.411 82.2255 136.436 79.3904 137.522 76.6157C138.668 73.5996 139.572 70.463 140.839 67.447C141.502 65.8183 141.924 62.9833 144.396 64.069C146.628 65.0945 145.06 67.447 144.577 69.1963C144.155 70.644 143.432 72.0313 142.949 73.479C141.864 76.3744 140.658 79.1492 139.813 82.1049C139.15 84.5177 138.728 87.1115 139.632 90.1275C142.165 87.956 143.009 85.6638 144.155 83.4319C146.326 79.2095 146.567 74.1425 149.703 70.282ZM134.989 91.0926C135.291 90.6704 135.532 90.0672 135.472 89.5846C135.472 88.9814 134.929 88.4386 134.326 88.8608C131.371 90.8514 129.381 89.9466 128.295 86.6893C127.632 86.9909 127.21 87.1115 126.969 87.3528C125.702 88.4989 124.557 90.2482 122.627 89.283C120.577 88.2576 120.818 86.086 121.18 84.1558C121.541 82.2858 121.964 80.4159 122.325 78.546C123.471 72.7552 124.617 66.9041 125.763 61.1133C126.004 59.9672 126.366 58.7005 124.798 58.3386C122.989 57.9766 123.109 59.4846 123.049 60.5704C122.325 68.6534 119.672 76.2538 116.476 83.6129C115.511 85.8448 114.727 88.1973 114.968 91.3339C121.3 91.3339 127.572 91.3339 133.843 91.3339C134.265 91.3943 134.808 91.3339 134.989 91.0926ZM130.406 24.378C132.155 21.6033 131.431 19.7936 129.924 17.7427C129.622 17.3205 129.321 16.8982 129.019 16.5363C124.376 10.5646 118.044 6.82473 111.109 4.29127C106.043 2.42133 101.28 4.29122 98.1438 8.39303C102.486 10.3233 102.486 10.3233 101.521 14.968C101.219 16.476 100.677 17.9237 100.435 19.4317C100.134 21.4826 98.7468 23.5335 99.9528 26.5495C102.908 22.8097 104.234 19.0698 105.682 15.3902C106.526 13.279 107.25 11.0472 107.973 8.93593C108.275 8.15176 108.878 7.54857 109.662 7.66921C110.807 7.85017 111.049 8.87561 110.868 9.84074C110.627 11.1678 110.325 12.4345 109.963 13.7616C108.697 18.4063 107.672 23.051 107.25 27.8163C107.129 29.0227 106.526 30.5911 108.395 31.134C110.144 30.6514 110.627 29.083 111.35 27.7559C113.34 24.0161 114.968 20.1556 116.175 16.1141C116.657 14.6061 116.717 11.9519 118.948 12.6155C121.059 13.2187 119.913 15.5712 119.551 17.1395C118.526 22.2065 117.381 27.2131 118.285 32.642C121.059 30.2895 121.783 26.9115 122.868 23.7748C123.531 21.7842 124.135 19.7936 124.918 17.803C125.16 17.1395 125.823 16.5967 126.728 16.7776C126.909 16.8379 127.089 16.8983 127.27 16.9586C127.813 17.3205 127.934 17.9237 127.873 18.4666C127.572 20.3366 127.089 22.2065 126.547 24.0161C125.22 28.5401 123.531 33.0039 123.351 37.8898C124.798 37.7692 125.099 36.8041 125.461 35.9596C127.089 32.0388 128.235 27.8766 130.406 24.378ZM122.868 48.7476C123.411 47.2999 124.436 46.3347 123.411 44.9473C123.29 44.7664 122.567 44.8268 122.325 45.0077C120.818 46.2744 121.903 47.2999 122.868 48.7476ZM118.948 40.1821C119.612 40.3027 119.612 39.5788 119.672 39.0963C119.551 38.4931 119.371 37.9502 118.647 38.1914C118.345 38.3121 117.984 38.7947 118.044 38.9756C118.225 39.3979 118.587 40.1217 118.948 40.1821ZM114.727 31.0133C114.787 30.6514 114.607 30.2895 114.486 29.9879C114.124 30.1085 113.642 30.0482 113.461 30.2895C112.737 31.4356 111.23 32.5213 112.617 34.0896C112.918 34.4515 113.762 34.6929 114.064 34.5119C115.391 33.6071 114.546 32.1594 114.727 31.0133ZM100.013 34.9341C102.606 34.6325 103.933 32.0991 103.993 26.9115C101.822 29.0227 100.254 31.4958 97.179 31.0736C97.0584 32.7626 97.7216 33.7277 98.4453 34.5119C98.7468 34.8738 99.4705 34.9944 100.013 34.9341ZM93.8019 19.9143C94.4653 17.4411 94.9478 15.6919 95.3699 14.0029C93.3799 15.0887 92.7768 16.8982 93.8019 19.9143Z" fill="black"/>
<path d="M243.294 405.242C245.826 408.259 247.816 411.456 247.696 415.557C247.575 417.91 247.515 420.323 244.681 421.107C242.329 421.77 240.52 420.865 239.434 418.754C238.53 416.945 236.962 416.643 235.273 416.161C230.148 414.713 229.183 413.205 229.665 407.897C230.027 403.855 231.535 400.115 232.982 396.375C233.404 395.29 234.309 394.505 235.635 394.505C236.721 394.505 237.565 395.229 237.625 396.194C238.047 400.176 240.942 402.528 243.294 405.242ZM243.294 417.91C244.862 411.938 241.063 405.544 234.188 401.985C233.163 404.217 232.499 406.509 232.379 409.043C232.258 411.275 233.102 412.843 235.454 413.024C238.771 413.325 241.304 414.833 243.294 417.91Z" fill="black"/>
<path d="M244.198 235.682C245.464 239.301 246.49 242.92 246.309 246.6C246.309 250.521 245.766 254.079 244.017 257.337C241.545 262.102 237.927 262.645 234.67 258.603C231.715 254.864 229.062 250.882 226.529 246.901C223.394 241.955 223.393 236.405 224.298 230.856C224.539 229.348 225.444 227.659 225.022 226.392C222.911 220.601 227.313 218.008 230.449 215.052C233.283 212.337 235.997 213.242 237.685 216.862C238.108 217.706 238.289 218.671 238.59 219.576C240.399 224.884 242.208 230.313 244.198 235.682ZM241.364 255.467C242.871 252.33 243.535 248.832 243.113 245.393C241.907 235.44 236.721 226.814 234.127 216.741C231.534 218.671 232.68 220.662 231.293 222.109C225.806 227.78 224.72 237.732 228.399 244.911C230.509 249.012 233.404 252.632 236.238 256.191C238.349 258.845 239.917 258.543 241.364 255.467Z" fill="black"/>
<path d="M228.64 104.725C234.851 106.293 238.228 110.757 238.047 118.538C237.927 121.193 237.203 125.113 235.514 128.793C234.791 130.361 233.947 132.05 231.957 132.171C229.725 132.292 228.58 130.542 227.796 128.853C226.831 126.802 226.167 124.571 225.564 122.399C224.539 118.78 224.298 114.98 222.187 111.602C221.102 109.852 221.223 107.439 222.79 105.69C224.419 103.881 226.59 104.242 228.64 104.725ZM234.67 116.729C234.791 111.119 231.836 108.525 225.384 108.525C226.951 115.281 227.193 122.278 231.052 129.155C234.429 124.993 234.61 120.891 234.67 116.729Z" fill="black"/>
<path d="M208.197 303.663C208.197 303.663 208.197 303.723 208.197 303.663C208.197 303.723 208.137 303.723 208.076 303.783C208.076 303.723 208.076 303.723 208.016 303.663C208.137 303.663 208.137 303.663 208.197 303.663Z" fill="black"/>
<path d="M157.964 72.0909C157.663 72.0909 157.301 71.9703 157.06 71.7291C156.758 71.488 156.638 71.1865 156.638 70.8247C157.06 71.3071 157.542 71.7291 157.964 72.0909Z" fill="black"/>
<path d="M136.918 127.949C139.391 131.689 139.994 135.67 138.607 139.952C137.099 144.718 134.748 149.121 131.732 153.102C131.069 154.007 130.165 154.912 128.838 154.61C127.089 154.248 126.968 152.68 127.149 151.413C127.752 147.131 126.064 143.692 123.953 140.133C120.395 134.162 119.973 127.466 120.938 120.71C121.481 117.151 123.109 114.196 127.149 113.411C128.175 113.17 129.139 112.507 130.707 111.783C131.732 115.161 130.647 118.237 132.215 120.771C133.783 123.183 135.351 125.596 136.918 127.949ZM135.954 137.66C136.436 135.549 136.376 133.438 135.29 131.568C133.903 129.095 132.335 126.682 130.647 124.39C128.838 122.037 129.079 118.72 127.27 116.367C125.702 117.272 125.039 118.418 124.496 119.624C121.42 126.923 122.928 133.8 126.908 140.254C128.416 142.727 129.803 145.14 130.647 148.156C133.361 145.08 135.049 141.581 135.954 137.66Z" fill="black"/>
<path d="M120.034 60.4494C120.154 61.0527 120.034 61.475 119.793 61.7767C119.853 61.2337 119.913 60.6907 119.913 60.0874C119.974 60.2081 119.974 60.3287 120.034 60.4494Z" fill="black"/>
<path d="M106.948 331.29C107.008 331.35 107.008 331.411 107.068 331.411C107.008 331.411 106.948 331.411 106.887 331.35C106.827 331.29 106.707 331.23 106.646 331.169C106.707 331.23 106.827 331.23 106.948 331.29Z" fill="black"/>
<path d="M72.6356 104.967C75.5301 108.526 75.5301 112.688 75.3492 117.694C75.2286 123.485 73.6608 129.758 71.2487 135.851C70.4045 137.962 69.3792 140.073 67.8113 141.762C63.9519 145.985 57.5598 145.02 55.811 139.651C52.9767 130.844 51.7707 121.856 54.6049 112.627C56.1125 107.802 59.4895 104.967 63.5298 102.795C66.9068 100.925 70.0425 101.89 72.6356 104.967ZM72.334 116.729C72.4546 112.145 71.8516 109.551 70.5249 107.621C68.5349 104.786 66.4243 104.303 63.771 106.535C60.394 109.43 57.5598 112.989 56.2935 117.151C54.1225 124.39 56.0523 131.628 58.2835 138.565C59.3086 141.762 62.9268 142.245 65.2184 139.711C66.3641 138.445 67.148 136.876 67.8717 135.308C70.7059 129.216 71.8516 122.641 72.334 116.729Z" fill="black"/>
</svg>
